<svg width="454" height="26" viewBox="0 0 454 26" fill="none" xmlns="http://www.w3.org/2000/svg">
<path d="M343.774 12.225C343.658 12.295 343.658 12.365 343.774 12.435C345.034 12.9483 345.991 13.7067 346.644 14.71C347.298 15.7133 347.624 16.9267 347.624 18.35C347.624 20.45 346.948 22.0833 345.594 23.25C344.264 24.4167 342.503 25 340.309 25H331.839C331.606 25 331.489 24.8833 331.489 24.65V0.849998C331.489 0.616665 331.606 0.499998 331.839 0.499998H340.064C342.328 0.499998 344.101 1.06 345.384 2.18C346.691 3.3 347.344 4.875 347.344 6.905C347.344 8.18833 347.029 9.285 346.399 10.195C345.793 11.0817 344.918 11.7583 343.774 12.225ZM334.114 2.67C334.021 2.67 333.974 2.71667 333.974 2.81V11.21C333.974 11.3033 334.021 11.35 334.114 11.35H340.064C341.534 11.35 342.701 10.965 343.564 10.195C344.451 9.425 344.894 8.39833 344.894 7.115C344.894 5.76167 344.451 4.68833 343.564 3.895C342.701 3.07833 341.534 2.67 340.064 2.67H334.114ZM340.309 22.795C341.779 22.795 342.946 22.375 343.809 21.535C344.696 20.695 345.139 19.5633 345.139 18.14C345.139 16.7167 344.684 15.585 343.774 14.745C342.888 13.8817 341.686 13.45 340.169 13.45H334.114C334.021 13.45 333.974 13.4967 333.974 13.59V22.655C333.974 22.7483 334.021 22.795 334.114 22.795H340.309ZM367.137 25C366.927 25 366.787 24.9067 366.717 24.72L365.317 20.31C365.294 20.24 365.247 20.205 365.177 20.205H354.712C354.642 20.205 354.596 20.24 354.572 20.31L353.172 24.72C353.102 24.9067 352.962 25 352.752 25H350.862C350.606 25 350.512 24.8717 350.582 24.615L358.317 0.779999C358.387 0.593332 358.527 0.499998 358.737 0.499998H361.117C361.327 0.499998 361.467 0.593332 361.537 0.779999L369.307 24.615L369.342 24.755C369.342 24.9183 369.237 25 369.027 25H367.137ZM355.272 18C355.249 18.0467 355.249 18.0933 355.272 18.14C355.319 18.1633 355.366 18.175 355.412 18.175H364.442C364.489 18.175 364.524 18.1633 364.547 18.14C364.594 18.0933 364.606 18.0467 364.582 18L360.032 3.72C360.009 3.67333 359.974 3.65 359.927 3.65C359.881 3.65 359.846 3.67333 359.822 3.72L355.272 18ZM386.157 12.225C386.04 12.295 386.04 12.365 386.157 12.435C387.417 12.9483 388.374 13.7067 389.027 14.71C389.68 15.7133 390.007 16.9267 390.007 18.35C390.007 20.45 389.33 22.0833 387.977 23.25C386.647 24.4167 384.885 25 382.692 25H374.222C373.989 25 373.872 24.8833 373.872 24.65V0.849998C373.872 0.616665 373.989 0.499998 374.222 0.499998H382.447C384.71 0.499998 386.484 1.06 387.767 2.18C389.074 3.3 389.727 4.875 389.727 6.905C389.727 8.18833 389.412 9.285 388.782 10.195C388.175 11.0817 387.3 11.7583 386.157 12.225ZM376.497 2.67C376.404 2.67 376.357 2.71667 376.357 2.81V11.21C376.357 11.3033 376.404 11.35 376.497 11.35H382.447C383.917 11.35 385.084 10.965 385.947 10.195C386.834 9.425 387.277 8.39833 387.277 7.115C387.277 5.76167 386.834 4.68833 385.947 3.895C385.084 3.07833 383.917 2.67 382.447 2.67H376.497ZM382.692 22.795C384.162 22.795 385.329 22.375 386.192 21.535C387.079 20.695 387.522 19.5633 387.522 18.14C387.522 16.7167 387.067 15.585 386.157 14.745C385.27 13.8817 384.069 13.45 382.552 13.45H376.497C376.404 13.45 376.357 13.4967 376.357 13.59V22.655C376.357 22.7483 376.404 22.795 376.497 22.795H382.692ZM408.1 12.225C407.984 12.295 407.984 12.365 408.1 12.435C409.36 12.9483 410.317 13.7067 410.97 14.71C411.624 15.7133 411.95 16.9267 411.95 18.35C411.95 20.45 411.274 22.0833 409.92 23.25C408.59 24.4167 406.829 25 404.635 25H396.165C395.932 25 395.815 24.8833 395.815 24.65V0.849998C395.815 0.616665 395.932 0.499998 396.165 0.499998H404.39C406.654 0.499998 408.427 1.06 409.71 2.18C411.017 3.3 411.67 4.875 411.67 6.905C411.67 8.18833 411.355 9.285 410.725 10.195C410.119 11.0817 409.244 11.7583 408.1 12.225ZM398.44 2.67C398.347 2.67 398.3 2.71667 398.3 2.81V11.21C398.3 11.3033 398.347 11.35 398.44 11.35H404.39C405.86 11.35 407.027 10.965 407.89 10.195C408.777 9.425 409.22 8.39833 409.22 7.115C409.22 5.76167 408.777 4.68833 407.89 3.895C407.027 3.07833 405.86 2.67 404.39 2.67H398.44ZM404.635 22.795C406.105 22.795 407.272 22.375 408.135 21.535C409.022 20.695 409.465 19.5633 409.465 18.14C409.465 16.7167 409.01 15.585 408.1 14.745C407.214 13.8817 406.012 13.45 404.495 13.45H398.44C398.347 13.45 398.3 13.4967 398.3 13.59V22.655C398.3 22.7483 398.347 22.795 398.44 22.795H404.635ZM431.463 25C431.253 25 431.113 24.9067 431.043 24.72L429.643 20.31C429.62 20.24 429.573 20.205 429.503 20.205H419.038C418.968 20.205 418.922 20.24 418.898 20.31L417.498 24.72C417.428 24.9067 417.288 25 417.078 25H415.188C414.932 25 414.838 24.8717 414.908 24.615L422.643 0.779999C422.713 0.593332 422.853 0.499998 423.063 0.499998H425.443C425.653 0.499998 425.793 0.593332 425.863 0.779999L433.633 24.615L433.668 24.755C433.668 24.9183 433.563 25 433.353 25H431.463ZM419.598 18C419.575 18.0467 419.575 18.0933 419.598 18.14C419.645 18.1633 419.692 18.175 419.738 18.175H428.768C428.815 18.175 428.85 18.1633 428.873 18.14C428.92 18.0933 428.932 18.0467 428.908 18L424.358 3.72C424.335 3.67333 424.3 3.65 424.253 3.65C424.207 3.65 424.172 3.67333 424.148 3.72L419.598 18ZM438.548 25C438.315 25 438.198 24.8833 438.198 24.65V0.849998C438.198 0.616665 438.315 0.499998 438.548 0.499998H440.333C440.567 0.499998 440.683 0.616665 440.683 0.849998V22.69C440.683 22.7833 440.73 22.83 440.823 22.83H453.178C453.412 22.83 453.528 22.9467 453.528 23.18V24.65C453.528 24.8833 453.412 25 453.178 25H438.548Z" fill="#AEAEAE"/>
<path d="M175.379 0.499998C175.496 0.499998 175.589 0.546665 175.659 0.639999C175.753 0.709999 175.799 0.803333 175.799 0.919999V4.35C175.799 4.46667 175.753 4.57167 175.659 4.665C175.589 4.735 175.496 4.77 175.379 4.77H169.114C168.998 4.77 168.939 4.82833 168.939 4.945V24.58C168.939 24.6967 168.893 24.8017 168.799 24.895C168.729 24.965 168.636 25 168.519 25H164.424C164.308 25 164.203 24.965 164.109 24.895C164.039 24.8017 164.004 24.6967 164.004 24.58V4.945C164.004 4.82833 163.946 4.77 163.829 4.77H157.739C157.623 4.77 157.518 4.735 157.424 4.665C157.354 4.57167 157.319 4.46667 157.319 4.35V0.919999C157.319 0.803333 157.354 0.709999 157.424 0.639999C157.518 0.546665 157.623 0.499998 157.739 0.499998H175.379ZM191.968 0.919999C191.968 0.803333 192.003 0.709999 192.073 0.639999C192.166 0.546665 192.271 0.499998 192.388 0.499998H196.483C196.6 0.499998 196.693 0.546665 196.763 0.639999C196.856 0.709999 196.903 0.803333 196.903 0.919999V24.58C196.903 24.6967 196.856 24.8017 196.763 24.895C196.693 24.965 196.6 25 196.483 25H192.388C192.271 25 192.166 24.965 192.073 24.895C192.003 24.8017 191.968 24.6967 191.968 24.58V14.92C191.968 14.8033 191.91 14.745 191.793 14.745H184.058C183.941 14.745 183.883 14.8033 183.883 14.92V24.58C183.883 24.6967 183.836 24.8017 183.743 24.895C183.673 24.965 183.58 25 183.463 25H179.368C179.251 25 179.146 24.965 179.053 24.895C178.983 24.8017 178.948 24.6967 178.948 24.58V0.919999C178.948 0.803333 178.983 0.709999 179.053 0.639999C179.146 0.546665 179.251 0.499998 179.368 0.499998H183.463C183.58 0.499998 183.673 0.546665 183.743 0.639999C183.836 0.709999 183.883 0.803333 183.883 0.919999V10.335C183.883 10.4517 183.941 10.51 184.058 10.51H191.793C191.91 10.51 191.968 10.4517 191.968 10.335V0.919999ZM201.346 25C201.229 25 201.124 24.965 201.031 24.895C200.961 24.8017 200.926 24.6967 200.926 24.58V0.919999C200.926 0.803333 200.961 0.709999 201.031 0.639999C201.124 0.546665 201.229 0.499998 201.346 0.499998H205.441C205.557 0.499998 205.651 0.546665 205.721 0.639999C205.814 0.709999 205.861 0.803333 205.861 0.919999V24.58C205.861 24.6967 205.814 24.8017 205.721 24.895C205.651 24.965 205.557 25 205.441 25H201.346ZM210.54 25C210.423 25 210.318 24.965 210.225 24.895C210.155 24.8017 210.12 24.6967 210.12 24.58V0.919999C210.12 0.803333 210.155 0.709999 210.225 0.639999C210.318 0.546665 210.423 0.499998 210.54 0.499998H214.635C214.752 0.499998 214.845 0.546665 214.915 0.639999C215.008 0.709999 215.055 0.803333 215.055 0.919999V10.72C215.055 10.79 215.078 10.8367 215.125 10.86C215.172 10.86 215.218 10.8367 215.265 10.79L223.35 0.744999C223.49 0.581665 223.665 0.499998 223.875 0.499998H228.495C228.682 0.499998 228.798 0.558332 228.845 0.674998C228.892 0.768332 228.868 0.884998 228.775 1.025L220.97 11C220.9 11.0933 220.888 11.175 220.935 11.245L229.195 24.51C229.242 24.65 229.265 24.7317 229.265 24.755C229.265 24.9183 229.148 25 228.915 25H224.295C224.062 25 223.898 24.9067 223.805 24.72L217.575 14.64C217.552 14.5933 217.517 14.57 217.47 14.57C217.423 14.57 217.377 14.5933 217.33 14.64L215.125 17.405C215.078 17.4983 215.055 17.5683 215.055 17.615V24.58C215.055 24.6967 215.008 24.8017 214.915 24.895C214.845 24.965 214.752 25 214.635 25H210.54ZM232.449 25C232.332 25 232.227 24.965 232.134 24.895C232.064 24.8017 232.029 24.6967 232.029 24.58V0.919999C232.029 0.803333 232.064 0.709999 232.134 0.639999C232.227 0.546665 232.332 0.499998 232.449 0.499998H236.544C236.661 0.499998 236.754 0.546665 236.824 0.639999C236.917 0.709999 236.964 0.803333 236.964 0.919999V10.72C236.964 10.79 236.987 10.8367 237.034 10.86C237.081 10.86 237.127 10.8367 237.174 10.79L245.259 0.744999C245.399 0.581665 245.574 0.499998 245.784 0.499998H250.404C250.591 0.499998 250.707 0.558332 250.754 0.674998C250.801 0.768332 250.777 0.884998 250.684 1.025L242.879 11C242.809 11.0933 242.797 11.175 242.844 11.245L251.104 24.51C251.151 24.65 251.174 24.7317 251.174 24.755C251.174 24.9183 251.057 25 250.824 25H246.204C245.971 25 245.807 24.9067 245.714 24.72L239.484 14.64C239.461 14.5933 239.426 14.57 239.379 14.57C239.332 14.57 239.286 14.5933 239.239 14.64L237.034 17.405C236.987 17.4983 236.964 17.5683 236.964 17.615V24.58C236.964 24.6967 236.917 24.8017 236.824 24.895C236.754 24.965 236.661 25 236.544 25H232.449ZM269.889 25C269.656 25 269.504 24.8833 269.434 24.65L268.384 21.22C268.338 21.1267 268.279 21.08 268.209 21.08H259.599C259.529 21.08 259.471 21.1267 259.424 21.22L258.409 24.65C258.339 24.8833 258.188 25 257.954 25H253.509C253.369 25 253.264 24.965 253.194 24.895C253.124 24.8017 253.113 24.6733 253.159 24.51L260.719 0.849998C260.789 0.616665 260.941 0.499998 261.174 0.499998H266.669C266.903 0.499998 267.054 0.616665 267.124 0.849998L274.684 24.51C274.708 24.5567 274.719 24.615 274.719 24.685C274.719 24.895 274.591 25 274.334 25H269.889ZM260.684 17.055C260.661 17.195 260.708 17.265 260.824 17.265H266.984C267.124 17.265 267.171 17.195 267.124 17.055L263.974 6.66C263.951 6.56667 263.916 6.53167 263.869 6.555C263.823 6.555 263.788 6.59 263.764 6.66L260.684 17.055Z" fill="black"/>
<path d="M9.38979 25.28C6.75312 25.28 4.66479 24.685 3.12479 23.495C1.60812 22.305 0.849785 20.7183 0.849785 18.735V17.65C0.849785 17.4167 0.966452 17.3 1.19979 17.3H2.91479C3.14812 17.3 3.26479 17.4167 3.26479 17.65V18.595C3.26479 19.9483 3.82479 21.045 4.94479 21.885C6.06479 22.7017 7.61645 23.11 9.59979 23.11C11.3965 23.11 12.7615 22.7367 13.6948 21.99C14.6281 21.22 15.0948 20.205 15.0948 18.945C15.0948 18.1283 14.8731 17.4283 14.4298 16.845C14.0098 16.2617 13.3448 15.7133 12.4348 15.2C11.5481 14.6867 10.2881 14.0917 8.65479 13.415C6.90479 12.715 5.53979 12.1083 4.55979 11.595C3.60312 11.0583 2.82145 10.3817 2.21479 9.565C1.63145 8.725 1.33979 7.675 1.33979 6.415C1.33979 4.455 2.01645 2.93833 3.36979 1.865C4.74645 0.768333 6.62479 0.22 9.00479 0.22C11.5948 0.22 13.6365 0.826666 15.1298 2.04C16.6231 3.25333 17.3698 4.86333 17.3698 6.87V7.64C17.3698 7.87333 17.2531 7.99 17.0198 7.99H15.2698C15.0365 7.99 14.9198 7.87333 14.9198 7.64V7.01C14.9198 5.65667 14.3831 4.54833 13.3098 3.685C12.2598 2.82167 10.7898 2.39 8.89979 2.39C7.24312 2.39 5.97145 2.72833 5.08479 3.405C4.19812 4.08167 3.75479 5.06167 3.75479 6.345C3.75479 7.185 3.96479 7.885 4.38479 8.445C4.82812 8.98167 5.44645 9.46 6.23979 9.88C7.05645 10.2767 8.30479 10.8017 9.98479 11.455C11.6881 12.155 13.0531 12.8083 14.0798 13.415C15.1298 14.0217 15.9698 14.7683 16.5998 15.655C17.2531 16.5183 17.5798 17.58 17.5798 18.84C17.5798 20.8 16.8565 22.3633 15.4098 23.53C13.9631 24.6967 11.9565 25.28 9.38979 25.28ZM30.8092 25.28C29.1759 25.28 27.7292 24.9533 26.4692 24.3C25.2092 23.6467 24.2292 22.7367 23.5292 21.57C22.8292 20.38 22.4792 19.0033 22.4792 17.44V0.849998C22.4792 0.616665 22.5959 0.499998 22.8292 0.499998H24.6142C24.8476 0.499998 24.9642 0.616665 24.9642 0.849998V17.51C24.9642 19.1667 25.5009 20.52 26.5742 21.57C27.6476 22.5967 29.0592 23.11 30.8092 23.11C32.5592 23.11 33.9709 22.5967 35.0442 21.57C36.1176 20.52 36.6542 19.1667 36.6542 17.51V0.849998C36.6542 0.616665 36.7709 0.499998 37.0042 0.499998H38.7892C39.0226 0.499998 39.1392 0.616665 39.1392 0.849998V17.44C39.1392 19.0033 38.7892 20.38 38.0892 21.57C37.4126 22.7367 36.4442 23.6467 35.1842 24.3C33.9242 24.9533 32.4659 25.28 30.8092 25.28ZM52.5246 25.28C49.8879 25.28 47.7996 24.685 46.2596 23.495C44.7429 22.305 43.9846 20.7183 43.9846 18.735V17.65C43.9846 17.4167 44.1012 17.3 44.3346 17.3H46.0496C46.2829 17.3 46.3996 17.4167 46.3996 17.65V18.595C46.3996 19.9483 46.9596 21.045 48.0796 21.885C49.1996 22.7017 50.7512 23.11 52.7346 23.11C54.5312 23.11 55.8962 22.7367 56.8296 21.99C57.7629 21.22 58.2296 20.205 58.2296 18.945C58.2296 18.1283 58.0079 17.4283 57.5646 16.845C57.1446 16.2617 56.4796 15.7133 55.5696 15.2C54.6829 14.6867 53.4229 14.0917 51.7896 13.415C50.0396 12.715 48.6746 12.1083 47.6946 11.595C46.7379 11.0583 45.9562 10.3817 45.3496 9.565C44.7662 8.725 44.4746 7.675 44.4746 6.415C44.4746 4.455 45.1512 2.93833 46.5046 1.865C47.8812 0.768333 49.7596 0.22 52.1396 0.22C54.7296 0.22 56.7712 0.826666 58.2646 2.04C59.7579 3.25333 60.5046 4.86333 60.5046 6.87V7.64C60.5046 7.87333 60.3879 7.99 60.1546 7.99H58.4046C58.1712 7.99 58.0546 7.87333 58.0546 7.64V7.01C58.0546 5.65667 57.5179 4.54833 56.4446 3.685C55.3946 2.82167 53.9246 2.39 52.0346 2.39C50.3779 2.39 49.1062 2.72833 48.2196 3.405C47.3329 4.08167 46.8896 5.06167 46.8896 6.345C46.8896 7.185 47.0996 7.885 47.5196 8.445C47.9629 8.98167 48.5812 9.46 49.3746 9.88C50.1912 10.2767 51.4396 10.8017 53.1196 11.455C54.8229 12.155 56.1879 12.8083 57.2146 13.415C58.2646 14.0217 59.1046 14.7683 59.7346 15.655C60.3879 16.5183 60.7146 17.58 60.7146 18.84C60.7146 20.8 59.9912 22.3633 58.5446 23.53C57.0979 24.6967 55.0912 25.28 52.5246 25.28ZM79.9121 0.499998C80.1454 0.499998 80.2621 0.616665 80.2621 0.849998V2.355C80.2621 2.58833 80.1454 2.705 79.9121 2.705H73.0521C72.9587 2.705 72.9121 2.75167 72.9121 2.845V24.65C72.9121 24.8833 72.7954 25 72.5621 25H70.7771C70.5437 25 70.4271 24.8833 70.4271 24.65V2.845C70.4271 2.75167 70.3804 2.705 70.2871 2.705H63.7071C63.4737 2.705 63.3571 2.58833 63.3571 2.355V0.849998C63.3571 0.616665 63.4737 0.499998 63.7071 0.499998H79.9121ZM100.924 2.32C100.924 2.55333 100.807 2.67 100.574 2.67H87.6938C87.6005 2.67 87.5538 2.71667 87.5538 2.81V11.455C87.5538 11.5483 87.6005 11.595 87.6938 11.595H96.7238C96.9571 11.595 97.0738 11.7117 97.0738 11.945V13.415C97.0738 13.6483 96.9571 13.765 96.7238 13.765H87.6938C87.6005 13.765 87.5538 13.8117 87.5538 13.905V22.69C87.5538 22.7833 87.6005 22.83 87.6938 22.83H100.574C100.807 22.83 100.924 22.9467 100.924 23.18V24.65C100.924 24.8833 100.807 25 100.574 25H85.4188C85.1855 25 85.0688 24.8833 85.0688 24.65V0.849998C85.0688 0.616665 85.1855 0.499998 85.4188 0.499998H100.574C100.807 0.499998 100.924 0.616665 100.924 0.849998V2.32Z" fill="#AEAEAE"/>
</svg>
