<svg width="148" height="26" viewBox="0 0 148 26" fill="none" xmlns="http://www.w3.org/2000/svg">
<path d="M10.1258 25.28C8.25915 25.28 6.62582 24.9883 5.22582 24.405C3.82582 23.7983 2.74082 22.9467 1.97082 21.85C1.22415 20.73 0.85082 19.435 0.85082 17.965V17.195C0.85082 17.0783 0.88582 16.985 0.95582 16.915C1.04915 16.8217 1.15415 16.775 1.27082 16.775H5.26082C5.37749 16.775 5.47082 16.8217 5.54082 16.915C5.63415 16.985 5.68082 17.0783 5.68082 17.195V17.72C5.68082 18.6533 6.11249 19.4467 6.97582 20.1C7.83915 20.73 9.00582 21.045 10.4758 21.045C11.7125 21.045 12.6342 20.7883 13.2408 20.275C13.8475 19.7383 14.1508 19.085 14.1508 18.315C14.1508 17.755 13.9642 17.2883 13.5908 16.915C13.2175 16.5183 12.7042 16.18 12.0508 15.9C11.4208 15.5967 10.4058 15.1883 9.00582 14.675C7.44249 14.1383 6.11249 13.59 5.01582 13.03C3.94249 12.47 3.03249 11.7117 2.28582 10.755C1.56249 9.775 1.20082 8.57333 1.20082 7.15C1.20082 5.75 1.56249 4.525 2.28582 3.475C3.00915 2.425 4.01249 1.62 5.29582 1.06C6.57915 0.5 8.06082 0.22 9.74082 0.22C11.5142 0.22 13.0892 0.534999 14.4658 1.165C15.8658 1.795 16.9508 2.68167 17.7208 3.825C18.5142 4.945 18.9108 6.25167 18.9108 7.745V8.27C18.9108 8.38667 18.8642 8.49167 18.7708 8.585C18.7008 8.655 18.6075 8.69 18.4908 8.69H14.4658C14.3492 8.69 14.2442 8.655 14.1508 8.585C14.0808 8.49167 14.0458 8.38667 14.0458 8.27V7.99C14.0458 7.01 13.6375 6.18167 12.8208 5.505C12.0275 4.805 10.9308 4.455 9.53082 4.455C8.43415 4.455 7.57082 4.68833 6.94082 5.155C6.33415 5.62167 6.03082 6.26333 6.03082 7.08C6.03082 7.66333 6.20582 8.15333 6.55582 8.55C6.92915 8.94667 7.46582 9.30833 8.16582 9.635C8.88915 9.93833 9.99749 10.3583 11.4908 10.895C13.1475 11.5017 14.4425 12.0383 15.3758 12.505C16.3325 12.9717 17.1842 13.6717 17.9308 14.605C18.7008 15.515 19.0858 16.705 19.0858 18.175C19.0858 20.3683 18.2808 22.1067 16.6708 23.39C15.0608 24.65 12.8792 25.28 10.1258 25.28ZM39.1728 0.499998C39.2895 0.499998 39.3828 0.546665 39.4528 0.639999C39.5461 0.709999 39.5928 0.803333 39.5928 0.919999V4.35C39.5928 4.46667 39.5461 4.57167 39.4528 4.665C39.3828 4.735 39.2895 4.77 39.1728 4.77H32.9078C32.7911 4.77 32.7328 4.82833 32.7328 4.945V24.58C32.7328 24.6967 32.6861 24.8017 32.5928 24.895C32.5228 24.965 32.4295 25 32.3128 25H28.2178C28.1011 25 27.9961 24.965 27.9028 24.895C27.8328 24.8017 27.7978 24.6967 27.7978 24.58V4.945C27.7978 4.82833 27.7395 4.77 27.6228 4.77H21.5328C21.4161 4.77 21.3111 4.735 21.2178 4.665C21.1478 4.57167 21.1128 4.46667 21.1128 4.35V0.919999C21.1128 0.803333 21.1478 0.709999 21.2178 0.639999C21.3111 0.546665 21.4161 0.499998 21.5328 0.499998H39.1728ZM56.0606 25C55.8273 25 55.6756 24.8833 55.6056 24.65L54.5556 21.22C54.5089 21.1267 54.4506 21.08 54.3806 21.08H45.7706C45.7006 21.08 45.6423 21.1267 45.5956 21.22L44.5806 24.65C44.5106 24.8833 44.3589 25 44.1256 25H39.6806C39.5406 25 39.4356 24.965 39.3656 24.895C39.2956 24.8017 39.2839 24.6733 39.3306 24.51L46.8906 0.849998C46.9606 0.616665 47.1123 0.499998 47.3456 0.499998H52.8406C53.0739 0.499998 53.2256 0.616665 53.2956 0.849998L60.8556 24.51C60.8789 24.5567 60.8906 24.615 60.8906 24.685C60.8906 24.895 60.7623 25 60.5056 25H56.0606ZM46.8556 17.055C46.8323 17.195 46.8789 17.265 46.9956 17.265H53.1556C53.2956 17.265 53.3423 17.195 53.2956 17.055L50.1456 6.66C50.1223 6.56667 50.0873 6.53167 50.0406 6.555C49.9939 6.555 49.9589 6.59 49.9356 6.66L46.8556 17.055ZM78.037 0.919999C78.037 0.803333 78.072 0.709999 78.142 0.639999C78.2354 0.546665 78.3404 0.499998 78.457 0.499998H82.552C82.6687 0.499998 82.762 0.546665 82.832 0.639999C82.9254 0.709999 82.972 0.803333 82.972 0.919999V24.58C82.972 24.6967 82.9254 24.8017 82.832 24.895C82.762 24.965 82.6687 25 82.552 25H78.597C78.3637 25 78.2004 24.9067 78.107 24.72L69.042 9.74C68.9954 9.67 68.9487 9.64667 68.902 9.67C68.8554 9.67 68.832 9.71667 68.832 9.81L68.902 24.58C68.902 24.6967 68.8554 24.8017 68.762 24.895C68.692 24.965 68.5987 25 68.482 25H64.387C64.2704 25 64.1654 24.965 64.072 24.895C64.002 24.8017 63.967 24.6967 63.967 24.58V0.919999C63.967 0.803333 64.002 0.709999 64.072 0.639999C64.1654 0.546665 64.2704 0.499998 64.387 0.499998H68.342C68.5754 0.499998 68.7387 0.593332 68.832 0.779999L77.862 15.69C77.9087 15.76 77.9554 15.795 78.002 15.795C78.0487 15.7717 78.072 15.7133 78.072 15.62L78.037 0.919999ZM87.4583 25C87.3417 25 87.2367 24.965 87.1433 24.895C87.0733 24.8017 87.0383 24.6967 87.0383 24.58V0.919999C87.0383 0.803333 87.0733 0.709999 87.1433 0.639999C87.2367 0.546665 87.3417 0.499998 87.4583 0.499998H96.2083C97.9583 0.499998 99.4867 0.814998 100.793 1.445C102.123 2.05167 103.15 2.915 103.873 4.035C104.597 5.155 104.958 6.45 104.958 7.92V17.58C104.958 19.05 104.597 20.345 103.873 21.465C103.15 22.585 102.123 23.46 100.793 24.09C99.4867 24.6967 97.9583 25 96.2083 25H87.4583ZM91.9733 20.59C91.9733 20.7067 92.0317 20.765 92.1483 20.765H96.3833C97.4567 20.765 98.32 20.4033 98.9733 19.68C99.65 18.9567 100 17.9883 100.023 16.775V8.725C100.023 7.51167 99.685 6.54333 99.0083 5.82C98.355 5.09666 97.4683 4.735 96.3483 4.735H92.1483C92.0317 4.735 91.9733 4.79333 91.9733 4.91V20.59ZM123.199 12.225C123.059 12.295 123.059 12.365 123.199 12.435C125.416 13.5783 126.524 15.48 126.524 18.14C126.524 20.4033 125.754 22.1183 124.214 23.285C122.674 24.4283 120.656 25 118.159 25H109.094C108.977 25 108.872 24.965 108.779 24.895C108.709 24.8017 108.674 24.6967 108.674 24.58V0.919999C108.674 0.803333 108.709 0.709999 108.779 0.639999C108.872 0.546665 108.977 0.499998 109.094 0.499998H117.879C123.409 0.499998 126.174 2.74 126.174 7.22C126.174 9.55333 125.182 11.2217 123.199 12.225ZM113.784 4.735C113.667 4.735 113.609 4.79333 113.609 4.91V10.37C113.609 10.4867 113.667 10.545 113.784 10.545H117.879C118.976 10.545 119.827 10.2883 120.434 9.775C121.041 9.26167 121.344 8.56167 121.344 7.675C121.344 6.765 121.041 6.05333 120.434 5.54C119.827 5.00333 118.976 4.735 117.879 4.735H113.784ZM118.159 20.73C119.232 20.73 120.072 20.4617 120.679 19.925C121.286 19.365 121.589 18.6067 121.589 17.65C121.589 16.6933 121.286 15.9467 120.679 15.41C120.072 14.85 119.221 14.57 118.124 14.57H113.784C113.667 14.57 113.609 14.6283 113.609 14.745V20.555C113.609 20.6717 113.667 20.73 113.784 20.73H118.159ZM135.558 24.965C135.441 24.965 135.336 24.93 135.243 24.86C135.173 24.7667 135.138 24.6617 135.138 24.545V15.69C135.138 15.5967 135.126 15.5267 135.103 15.48L127.893 0.989998C127.846 0.896665 127.823 0.826665 127.823 0.779999C127.823 0.593332 127.951 0.499998 128.208 0.499998H132.618C132.851 0.499998 133.014 0.604998 133.108 0.814998L137.483 10.125C137.553 10.265 137.623 10.265 137.693 10.125L142.068 0.814998C142.161 0.604998 142.324 0.499998 142.558 0.499998H147.038C147.201 0.499998 147.306 0.546665 147.353 0.639999C147.423 0.709999 147.423 0.826666 147.353 0.989998L140.073 15.48C140.049 15.5267 140.038 15.5967 140.038 15.69V24.545C140.038 24.6617 139.991 24.7667 139.898 24.86C139.828 24.93 139.734 24.965 139.618 24.965H135.558Z" fill="black"/>
</svg>
