<svg width="361" height="65" viewBox="0 0 361 65" fill="none" xmlns="http://www.w3.org/2000/svg">
<path d="M0.3295 49H9.9295V33.512C9.9295 29.48 10.6975 25.576 15.6895 25.576C20.1055 25.576 19.9775 30.248 19.9775 32.552V49H29.5775V32.552C29.5775 28.712 30.9855 25.576 35.4015 25.576C38.5375 25.576 39.6255 28.008 39.6255 30.888V49H49.2255V30.632C49.2255 23.08 46.6655 17.128 38.2175 17.128C33.6095 17.128 30.6015 18.728 28.3615 22.696C26.6975 18.92 23.1135 17.128 18.7615 17.128C14.0895 17.128 10.9535 19.688 9.6735 22.12H9.5455V17.896H0.3295V49ZM54.865 33.448C54.865 43.368 62.545 49.768 72.145 49.768C81.745 49.768 89.425 43.368 89.425 33.448C89.425 23.528 81.745 17.128 72.145 17.128C62.545 17.128 54.865 23.528 54.865 33.448ZM64.465 33.448C64.465 28.776 67.345 25.576 72.145 25.576C76.945 25.576 79.825 28.776 79.825 33.448C79.825 38.12 76.945 41.32 72.145 41.32C67.345 41.32 64.465 38.12 64.465 33.448ZM116.264 17.896H107.816V8.68003H98.2155V17.896H92.0715V25.576H98.2155V40.36C98.2155 47.144 103.144 49.768 109.544 49.768C111.784 49.768 114.152 49.576 116.264 48.808V40.808C115.432 41.576 113.384 41.704 112.36 41.704C108.2 41.704 107.816 39.272 107.816 35.944V25.576H116.264V17.896ZM119.99 33.448C119.99 43.368 127.67 49.768 137.27 49.768C146.87 49.768 154.55 43.368 154.55 33.448C154.55 23.528 146.87 17.128 137.27 17.128C127.67 17.128 119.99 23.528 119.99 33.448ZM129.59 33.448C129.59 28.776 132.47 25.576 137.27 25.576C142.07 25.576 144.95 28.776 144.95 33.448C144.95 38.12 142.07 41.32 137.27 41.32C132.47 41.32 129.59 38.12 129.59 33.448ZM160.205 49H169.805V36.008C169.805 29.8 170.701 25.576 177.997 25.576C179.405 25.576 180.749 25.832 182.093 26.216V17.448C181.197 17.192 179.981 17.128 178.893 17.128C174.669 17.128 171.981 19.112 169.933 22.888H169.805V17.896H160.205V49ZM212.534 21.288C209.526 18.216 205.11 17.128 201.462 17.128C191.862 17.128 184.182 23.528 184.182 33.448C184.182 43.368 191.862 49.768 201.462 49.768C205.11 49.768 209.526 48.68 212.534 45.608L206.198 38.952C205.11 40.232 203.574 41.32 201.462 41.32C196.662 41.32 193.782 38.12 193.782 33.448C193.782 28.776 196.662 25.576 201.462 25.576C203.446 25.576 205.238 26.6 206.198 27.944L212.534 21.288ZM248.017 17.896H238.161L231.313 38.44H231.185L223.185 17.896H212.817L226.449 49.256L225.745 51.048C224.401 54.44 223.697 56.296 219.345 56.296C217.745 56.296 216.337 55.976 214.865 55.336L213.585 63.208C215.889 63.976 218.321 64.36 220.753 64.36C229.905 64.36 231.377 60.648 233.937 54.056L248.017 17.896ZM278.972 21.288C275.964 18.216 271.548 17.128 267.9 17.128C258.3 17.128 250.62 23.528 250.62 33.448C250.62 43.368 258.3 49.768 267.9 49.768C271.548 49.768 275.964 48.68 278.972 45.608L272.636 38.952C271.548 40.232 270.012 41.32 267.9 41.32C263.1 41.32 260.22 38.12 260.22 33.448C260.22 28.776 263.1 25.576 267.9 25.576C269.884 25.576 271.676 26.6 272.636 27.944L278.972 21.288ZM282.583 49H292.183V0.616028H282.583V49ZM321.8 38.696C320.2 40.872 318.088 42.472 314.952 42.472C311.24 42.472 308.488 40.104 307.72 36.456H329.992V33.448C329.992 23.528 324.36 17.128 315.4 17.128C305.8 17.128 298.12 23.528 298.12 33.448C298.12 43.368 305.8 49.768 315.4 49.768C320.392 49.768 325.448 47.528 328.52 43.624L321.8 38.696ZM307.72 29.928C307.976 26.92 310.28 24.04 314.503 24.04C317.96 24.04 320.456 26.728 320.392 29.928H307.72ZM359.318 21.224C356.438 18.152 351.894 17.128 347.798 17.128C341.27 17.128 334.742 20.328 334.742 27.624C334.742 39.464 350.934 35.24 350.934 40.232C350.934 41.896 348.758 42.472 346.582 42.472C343.702 42.472 341.59 41.256 339.798 39.08L333.974 45.544C337.046 48.68 341.845 49.768 346.198 49.768C352.854 49.768 360.534 47.464 360.534 39.528C360.534 27.688 344.342 31.592 344.342 26.984C344.342 25.128 346.262 24.424 347.862 24.424C350.166 24.424 352.022 25.32 353.43 27.048L359.318 21.224Z" fill="#40E0D0"/>
</svg>
