<svg width="107" height="111" viewBox="0 0 107 111" fill="none" xmlns="http://www.w3.org/2000/svg">
<path d="M105 55.0286C105 84.3689 81.8899 108.057 53.5 108.057C25.1101 108.057 2 84.3689 2 55.0286C2 25.6882 25.1101 2 53.5 2C81.8899 2 105 25.6882 105 55.0286Z" stroke="#5A5A5A" stroke-width="4"/>
<path d="M68.2188 41.2706C68.2188 49.7169 61.5762 56.4671 53.5 56.4671C45.4238 56.4671 38.7812 49.7169 38.7812 41.2706C38.7812 32.8244 45.4238 26.0742 53.5 26.0742C61.5762 26.0742 68.2188 32.8244 68.2188 41.2706Z" stroke="#5A5A5A" stroke-width="4"/>
<path d="M29.1817 80.6679C29.1817 66.9108 35.8692 60.0322 52.5879 60.0322C69.3067 60.0322 74.3223 66.9108 74.3223 80.6679" stroke="#5A5A5A" stroke-width="4"/>
</svg>
