<svg width="44" height="43" viewBox="0 0 44 43" fill="none" xmlns="http://www.w3.org/2000/svg">
<path fill-rule="evenodd" clip-rule="evenodd" d="M23.9999 5C17.2542 5 11.7856 10.4685 11.7856 17.2143V30.7857C11.7856 37.5315 17.2542 43 23.9999 43C30.7457 43 36.2142 37.5315 36.2142 30.7857V17.2143C36.2142 10.4685 30.7457 5 23.9999 5ZM22.9162 10.3963C22.2627 9.8653 21.2856 10.3304 21.2856 11.1724V21.2857L17.2428 17.2428C16.8522 16.8523 16.2191 16.8523 15.8285 17.2428L15.207 17.8643C14.8165 18.2548 14.8165 18.888 15.207 19.2785L19.9285 24L15.207 28.7215C14.8165 29.112 14.8165 29.7452 15.207 30.1357L15.8285 30.7572C16.2191 31.1477 16.8522 31.1477 17.2428 30.7572L21.2856 26.7143V35.6704C21.2856 36.4756 22.1887 36.9506 22.8522 36.4944L31.0974 30.8258C31.6304 30.4594 31.6806 29.6911 31.1999 29.2585L25.3571 24L31.2737 18.675C31.7302 18.2642 31.712 17.5428 31.2354 17.1556L22.9162 10.3963ZM25.3571 15.8571V20.6071L28.0714 17.8929L25.3571 15.8571ZM25.3571 32.1429V27.3929L28.0714 30.1071L25.3571 32.1429Z" fill="#898989"/>
</svg>
