<svg width="30" height="30" viewBox="0 0 30 30" fill="none" xmlns="http://www.w3.org/2000/svg">
<path fill-rule="evenodd" clip-rule="evenodd" d="M2 13C0.895431 13 1.92045e-07 13.8954 1.78873e-07 15C1.65701e-07 16.1046 0.895431 17 2 17L6 17C7.10457 17 8 16.1046 8 15C8 13.8954 7.10457 13 6 13L2 13ZM4.3934 22.7782C3.61235 23.5592 3.61235 24.8255 4.3934 25.6066C5.17445 26.3876 6.44078 26.3876 7.22183 25.6066L10.0503 22.7782C10.8313 21.9971 10.8313 20.7308 10.0503 19.9497C9.26921 19.1687 8.00287 19.1687 7.22183 19.9497L4.3934 22.7782ZM7.22183 4.39339C6.44078 3.61234 5.17445 3.61234 4.3934 4.39339C3.61235 5.17444 3.61235 6.44077 4.3934 7.22182L7.22183 10.0502C8.00287 10.8313 9.26921 10.8313 10.0503 10.0502C10.8313 9.26919 10.8313 8.00286 10.0503 7.22182L7.22183 4.39339ZM13 28C13 29.1046 13.8954 30 15 30C16.1046 30 17 29.1046 17 28L17 24C17 22.8954 16.1046 22 15 22C13.8954 22 13 22.8954 13 24L13 28ZM13 6C13 7.10457 13.8954 8 15 8C16.1046 8 17 7.10457 17 6L17 2C17 0.89543 16.1046 1.92045e-07 15 1.78873e-07C13.8954 1.65701e-07 13 0.89543 13 2L13 6ZM22.7782 19.9497C21.9971 19.1687 20.7308 19.1687 19.9497 19.9497C19.1687 20.7308 19.1687 21.9971 19.9497 22.7782L22.7782 25.6066C23.5592 26.3876 24.8256 26.3876 25.6066 25.6066C26.3877 24.8255 26.3877 23.5592 25.6066 22.7782L22.7782 19.9497ZM19.9497 7.22182C19.1687 8.00286 19.1687 9.26919 19.9497 10.0502C20.7308 10.8313 21.9971 10.8313 22.7782 10.0502L25.6066 7.22182C26.3876 6.44077 26.3877 5.17444 25.6066 4.39339C24.8256 3.61234 23.5592 3.61234 22.7782 4.39339L19.9497 7.22182ZM24 13C22.8954 13 22 13.8954 22 15C22 16.1046 22.8954 17 24 17L28 17C29.1046 17 30 16.1046 30 15C30 13.8954 29.1046 13 28 13L24 13ZM15 13C16.1046 13 17 13.8954 17 15C17 16.1046 16.1046 17 15 17C13.8954 17 13 16.1046 13 15C13 13.8954 13.8954 13 15 13ZM15 9C18.3137 9 21 11.6863 21 15C21 18.3137 18.3137 21 15 21C11.6863 21 9 18.3137 9 15C9 11.6863 11.6863 9 15 9Z" fill="#898989"/>
</svg>
