<svg width="292" height="300" viewBox="0 0 292 300" fill="none" xmlns="http://www.w3.org/2000/svg">
<path d="M156.395 1.464C156.395 1.224 156.467 1.032 156.611 0.887997C156.803 0.695997 157.019 0.599997 157.259 0.599997H165.683C165.923 0.599997 166.115 0.695997 166.259 0.887997C166.451 1.032 166.547 1.224 166.547 1.464V50.136C166.547 50.376 166.451 50.592 166.259 50.784C166.115 50.928 165.923 51 165.683 51H157.547C157.067 51 156.731 50.808 156.539 50.424L137.891 19.608C137.795 19.464 137.699 19.416 137.603 19.464C137.507 19.464 137.459 19.56 137.459 19.752L137.603 50.136C137.603 50.376 137.507 50.592 137.315 50.784C137.171 50.928 136.979 51 136.739 51H128.315C128.075 51 127.859 50.928 127.667 50.784C127.523 50.592 127.451 50.376 127.451 50.136V1.464C127.451 1.224 127.523 1.032 127.667 0.887997C127.859 0.695997 128.075 0.599997 128.315 0.599997H136.451C136.931 0.599997 137.267 0.791997 137.459 1.176L156.035 31.848C156.131 31.992 156.227 32.064 156.323 32.064C156.419 32.016 156.467 31.896 156.467 31.704L156.395 1.464Z" fill="#B6B6B6"/>
<path d="M291.861 132.448C291.861 132.688 291.765 132.904 291.573 133.096C291.429 133.24 291.237 133.312 290.997 133.312H267.381C267.141 133.312 267.021 133.432 267.021 133.672V144.832C267.021 145.072 267.141 145.192 267.381 145.192H282.861C283.101 145.192 283.293 145.288 283.437 145.48C283.629 145.624 283.725 145.816 283.725 146.056V153.04C283.725 153.28 283.629 153.496 283.437 153.688C283.293 153.832 283.101 153.904 282.861 153.904H267.381C267.141 153.904 267.021 154.024 267.021 154.264V165.928C267.021 166.168 267.141 166.288 267.381 166.288H290.997C291.237 166.288 291.429 166.384 291.573 166.576C291.765 166.72 291.861 166.912 291.861 167.152V174.136C291.861 174.376 291.765 174.592 291.573 174.784C291.429 174.928 291.237 175 290.997 175H257.733C257.493 175 257.277 174.928 257.085 174.784C256.941 174.592 256.869 174.376 256.869 174.136V125.464C256.869 125.224 256.941 125.032 257.085 124.888C257.277 124.696 257.493 124.6 257.733 124.6H290.997C291.237 124.6 291.429 124.696 291.573 124.888C291.765 125.032 291.861 125.224 291.861 125.464V132.448Z" fill="#B6B6B6"/>
<path d="M146.762 299.576C142.922 299.576 139.562 298.976 136.682 297.776C133.802 296.528 131.57 294.776 129.986 292.52C128.45 290.216 127.682 287.552 127.682 284.528V282.944C127.682 282.704 127.754 282.512 127.898 282.368C128.09 282.176 128.306 282.08 128.546 282.08H136.754C136.994 282.08 137.186 282.176 137.33 282.368C137.522 282.512 137.618 282.704 137.618 282.944V284.024C137.618 285.944 138.506 287.576 140.282 288.92C142.058 290.216 144.458 290.864 147.482 290.864C150.026 290.864 151.922 290.336 153.17 289.28C154.418 288.176 155.042 286.832 155.042 285.248C155.042 284.096 154.658 283.136 153.89 282.368C153.122 281.552 152.066 280.856 150.722 280.28C149.426 279.656 147.338 278.816 144.458 277.76C141.242 276.656 138.506 275.528 136.25 274.376C134.042 273.224 132.17 271.664 130.634 269.696C129.146 267.68 128.402 265.208 128.402 262.28C128.402 259.4 129.146 256.88 130.634 254.72C132.122 252.56 134.186 250.904 136.826 249.752C139.466 248.6 142.514 248.024 145.97 248.024C149.618 248.024 152.858 248.672 155.69 249.968C158.57 251.264 160.802 253.088 162.386 255.44C164.018 257.744 164.834 260.432 164.834 263.504V264.584C164.834 264.824 164.738 265.04 164.546 265.232C164.402 265.376 164.21 265.448 163.97 265.448H155.69C155.45 265.448 155.234 265.376 155.042 265.232C154.898 265.04 154.826 264.824 154.826 264.584V264.008C154.826 261.992 153.986 260.288 152.306 258.896C150.674 257.456 148.418 256.736 145.538 256.736C143.282 256.736 141.506 257.216 140.21 258.176C138.962 259.136 138.338 260.456 138.338 262.136C138.338 263.336 138.698 264.344 139.418 265.16C140.186 265.976 141.29 266.72 142.73 267.392C144.218 268.016 146.498 268.88 149.57 269.984C152.978 271.232 155.642 272.336 157.562 273.296C159.53 274.256 161.282 275.696 162.818 277.616C164.402 279.488 165.194 281.936 165.194 284.96C165.194 289.472 163.538 293.048 160.226 295.688C156.914 298.28 152.426 299.576 146.762 299.576Z" fill="#B6B6B6"/>
<path d="M13.9817 175C13.4537 175 13.1177 174.76 12.9737 174.28L0.229688 125.536L0.157688 125.248C0.157688 124.816 0.421688 124.6 0.949688 124.6H9.87769C10.3577 124.6 10.6697 124.84 10.8137 125.32L17.6537 154.624C17.7017 154.816 17.7737 154.912 17.8697 154.912C17.9657 154.912 18.0377 154.816 18.0857 154.624L24.7097 125.392C24.8537 124.864 25.1657 124.6 25.6457 124.6H34.3577C34.8857 124.6 35.2217 124.84 35.3657 125.32L42.5657 154.624C42.6137 154.768 42.6857 154.864 42.7817 154.912C42.8777 154.912 42.9497 154.816 42.9977 154.624L49.6217 125.392C49.7657 124.864 50.0777 124.6 50.5577 124.6H59.0537C59.7257 124.6 59.9897 124.912 59.8457 125.536L48.0377 174.28C47.8937 174.76 47.5577 175 47.0297 175H38.4617C37.9817 175 37.6697 174.76 37.5257 174.28L30.1817 143.104C30.1337 142.912 30.0617 142.816 29.9657 142.816C29.8697 142.816 29.7977 142.912 29.7497 143.104L22.9097 174.208C22.8137 174.736 22.5017 175 21.9737 175H13.9817Z" fill="#B6B6B6"/>
<circle cx="48" cy="52" r="10" fill="#E7E7E7"/>
<circle cx="50" cy="245" r="10" fill="#E7E7E7"/>
<circle cx="252" cy="52" r="10" fill="#E7E7E7"/>
<circle cx="252" cy="245" r="10" fill="#E7E7E7"/>
</svg>
