<svg width="287" height="300" viewBox="0 0 287 300" fill="none" xmlns="http://www.w3.org/2000/svg">
<path d="M148.395 1.464C148.395 1.224 148.467 1.032 148.611 0.887997C148.803 0.695997 149.019 0.599997 149.259 0.599997H157.683C157.923 0.599997 158.115 0.695997 158.259 0.887997C158.451 1.032 158.547 1.224 158.547 1.464V50.136C158.547 50.376 158.451 50.592 158.259 50.784C158.115 50.928 157.923 51 157.683 51H149.547C149.067 51 148.731 50.808 148.539 50.424L129.891 19.608C129.795 19.464 129.699 19.416 129.603 19.464C129.507 19.464 129.459 19.56 129.459 19.752L129.603 50.136C129.603 50.376 129.507 50.592 129.315 50.784C129.171 50.928 128.979 51 128.739 51H120.315C120.075 51 119.859 50.928 119.667 50.784C119.523 50.592 119.451 50.376 119.451 50.136V1.464C119.451 1.224 119.523 1.032 119.667 0.887997C119.859 0.695997 120.075 0.599997 120.315 0.599997H128.451C128.931 0.599997 129.267 0.791997 129.459 1.176L148.035 31.848C148.131 31.992 148.227 32.064 148.323 32.064C148.419 32.016 148.467 31.896 148.467 31.704L148.395 1.464Z" fill="#B6B6B6"/>
<path d="M279.052 164.361C278.812 164.361 278.596 164.265 278.404 164.073C278.26 163.929 278.188 163.737 278.188 163.497L278.188 139.881C278.188 139.641 278.068 139.521 277.828 139.521L266.668 139.521C266.428 139.521 266.308 139.641 266.308 139.881L266.308 155.361C266.308 155.601 266.212 155.793 266.02 155.937C265.876 156.129 265.684 156.225 265.444 156.225L258.46 156.225C258.22 156.225 258.004 156.129 257.812 155.937C257.668 155.793 257.596 155.601 257.596 155.361L257.596 139.881C257.596 139.641 257.476 139.521 257.236 139.521L245.572 139.521C245.332 139.521 245.212 139.641 245.212 139.881L245.212 163.497C245.212 163.737 245.116 163.929 244.924 164.073C244.78 164.265 244.588 164.361 244.348 164.361L237.364 164.361C237.124 164.361 236.908 164.265 236.716 164.073C236.572 163.929 236.5 163.737 236.5 163.497L236.5 130.233C236.5 129.993 236.572 129.777 236.716 129.585C236.908 129.441 237.124 129.369 237.364 129.369L286.036 129.369C286.276 129.369 286.468 129.441 286.612 129.585C286.804 129.777 286.9 129.993 286.9 130.233L286.9 163.497C286.9 163.737 286.804 163.929 286.612 164.073C286.468 164.265 286.276 164.361 286.036 164.361L279.052 164.361Z" fill="#B6B6B6"/>
<path d="M138.762 299.576C134.922 299.576 131.562 298.976 128.682 297.776C125.802 296.528 123.57 294.776 121.986 292.52C120.45 290.216 119.682 287.552 119.682 284.528V282.944C119.682 282.704 119.754 282.512 119.898 282.368C120.09 282.176 120.306 282.08 120.546 282.08H128.754C128.994 282.08 129.186 282.176 129.33 282.368C129.522 282.512 129.618 282.704 129.618 282.944V284.024C129.618 285.944 130.506 287.576 132.282 288.92C134.058 290.216 136.458 290.864 139.482 290.864C142.026 290.864 143.922 290.336 145.17 289.28C146.418 288.176 147.042 286.832 147.042 285.248C147.042 284.096 146.658 283.136 145.89 282.368C145.122 281.552 144.066 280.856 142.722 280.28C141.426 279.656 139.338 278.816 136.458 277.76C133.242 276.656 130.506 275.528 128.25 274.376C126.042 273.224 124.17 271.664 122.634 269.696C121.146 267.68 120.402 265.208 120.402 262.28C120.402 259.4 121.146 256.88 122.634 254.72C124.122 252.56 126.186 250.904 128.826 249.752C131.466 248.6 134.514 248.024 137.97 248.024C141.618 248.024 144.858 248.672 147.69 249.968C150.57 251.264 152.802 253.088 154.386 255.44C156.018 257.744 156.834 260.432 156.834 263.504V264.584C156.834 264.824 156.738 265.04 156.546 265.232C156.402 265.376 156.21 265.448 155.97 265.448H147.69C147.45 265.448 147.234 265.376 147.042 265.232C146.898 265.04 146.826 264.824 146.826 264.584V264.008C146.826 261.992 145.986 260.288 144.306 258.896C142.674 257.456 140.418 256.736 137.538 256.736C135.282 256.736 133.506 257.216 132.21 258.176C130.962 259.136 130.338 260.456 130.338 262.136C130.338 263.336 130.698 264.344 131.418 265.16C132.186 265.976 133.29 266.72 134.73 267.392C136.218 268.016 138.498 268.88 141.57 269.984C144.978 271.232 147.642 272.336 149.562 273.296C151.53 274.256 153.282 275.696 154.818 277.616C156.402 279.488 157.194 281.936 157.194 284.96C157.194 289.472 155.538 293.048 152.226 295.688C148.914 298.28 144.426 299.576 138.762 299.576Z" fill="#B6B6B6"/>
<path d="M51 162.018C51 162.546 50.76 162.882 50.28 163.026L1.536 175.77L1.248 175.842C0.815997 175.842 0.599996 175.578 0.599996 175.05L0.599996 166.122C0.599996 165.642 0.839996 165.33 1.32 165.186L30.624 158.346C30.816 158.298 30.912 158.226 30.912 158.13C30.912 158.034 30.816 157.962 30.624 157.914L1.392 151.29C0.863996 151.146 0.599995 150.834 0.599995 150.354L0.599995 141.642C0.599995 141.114 0.839995 140.778 1.31999 140.634L30.624 133.434C30.768 133.386 30.864 133.314 30.912 133.218C30.912 133.122 30.816 133.05 30.624 133.002L1.392 126.378C0.863995 126.234 0.599994 125.922 0.599994 125.442L0.599994 116.946C0.599994 116.274 0.911994 116.01 1.53599 116.154L50.28 127.962C50.76 128.106 51 128.442 51 128.97L51 137.538C51 138.018 50.76 138.33 50.28 138.474L19.104 145.818C18.912 145.866 18.816 145.938 18.816 146.034C18.816 146.13 18.912 146.202 19.104 146.25L50.208 153.09C50.736 153.186 51 153.498 51 154.026L51 162.018Z" fill="#B6B6B6"/>
<circle cx="40" cy="52" r="10" fill="#E7E7E7"/>
<circle cx="42" cy="245" r="10" fill="#E7E7E7"/>
<circle cx="244" cy="52" r="10" fill="#E7E7E7"/>
<circle cx="244" cy="245" r="10" fill="#E7E7E7"/>
</svg>
