<svg width="102" height="102" viewBox="0 0 102 102" fill="none" xmlns="http://www.w3.org/2000/svg">
<circle cx="51" cy="51" r="51" fill="#FF8484"/>
<path d="M31.2411 79C30.9051 79 30.6651 78.904 30.5211 78.712C30.3771 78.52 30.4011 78.28 30.5931 77.992L44.5611 54.016C44.6571 53.872 44.6571 53.728 44.5611 53.584L30.5931 29.608L30.4491 29.176C30.4491 28.792 30.7131 28.6 31.2411 28.6H40.3851C40.8651 28.6 41.2251 28.792 41.4651 29.176L50.8251 45.664C50.9691 45.952 51.1131 45.952 51.2571 45.664L60.6171 29.176C60.8571 28.792 61.2171 28.6 61.6971 28.6H70.7691C71.1051 28.6 71.3451 28.696 71.4891 28.888C71.6331 29.08 71.6091 29.32 71.4171 29.608L57.4491 53.584C57.4011 53.728 57.4011 53.872 57.4491 54.016L71.4171 77.992L71.5611 78.424C71.5611 78.808 71.2971 79 70.7691 79H61.6971C61.2171 79 60.8571 78.808 60.6171 78.424L51.2571 62.008C51.1131 61.72 50.9691 61.72 50.8251 62.008L41.3931 78.424C41.1531 78.808 40.7931 79 40.3131 79H31.2411Z" fill="white"/>
</svg>
