<svg id="Layer_1" enable-background="new 0 0 511.969 511.969" height="512" viewBox="0 0 511.969 511.969" width="512" xmlns="http://www.w3.org/2000/svg"><path d="m350.687 366.342h-78.711v-30h78.711c31.484 0 57.099-25.614 57.099-57.099v-135.79h30v135.79c0 48.027-39.073 87.099-87.099 87.099z" fill="#08475e"/><path d="m350.687 366.342h-78.711v-30h78.711c31.484 0 57.099-25.614 57.099-57.099v-135.79h30v135.79c0 48.027-39.073 87.099-87.099 87.099z" fill="#05303d"/><path d="m67.568 132.984h219.408v308.816h-219.408z" fill="#00cb75"/><path d="m177.272 132.984h109.704v308.816h-109.704z" fill="#00a763"/><path d="m48.057 15h258.43v120.396h-258.43z" fill="#f9f9f9"/><path d="m177.272 15h129.215v120.396h-129.215z" fill="#f1f4f6"/><path d="m321.487 150.396h-288.43v-150.396h288.43zm-258.43-30h228.43v-90.396h-228.43z" fill="#08475e"/><path d="m321.487 0h-144.215v30h114.215v90.396h-114.215v30h144.215z" fill="#05303d"/><g fill="#bee75e"><path d="m162.272 59.096h30v32.205h-30z"/><path d="m215.947 59.096h30v32.205h-30z"/><path d="m108.597 59.096h30v32.205h-30z"/></g><path d="m193.93 348.327-28.461-9.487 14.248-42.742h-46.512l27.409-82.228 28.461 9.486-14.247 42.742h46.512z" fill="#ffec29"/><path d="m21.553 411.8h311.438v100.168h-311.438z" fill="#08475e"/><path d="m177.272 411.8h155.719v100.168h-155.719z" fill="#05303d"/><path d="m469.99 35.032h-30v40.166h-34.409v-40.166h-30v76.217c0 26.029 21.176 47.205 47.205 47.205 26.028 0 47.204-21.176 47.204-47.205z" fill="#f1f4f6"/><path d="m439.99 35.032v40.166h-17.205v83.255c26.028 0 47.204-21.176 47.204-47.205v-76.216z" fill="#daeaec"/><path d="m355.155 62.971h135.261v30h-135.261z" fill="#0a617d"/><path d="m215.947 59.096h30v32.205h-30z" fill="#70d840"/><path d="m177.272 59.096h15v32.205h-15z" fill="#70d840"/><path d="m189.075 223.356-11.803-3.934v39.343z" fill="#fdbf00"/><path d="m221.34 266.098h-44.068v30h2.445l-2.445 7.336v39.34l16.658 5.553z" fill="#fdbf00"/><path d="m422.785 62.971h67.63v30h-67.63z" fill="#08475e"/></svg>