<svg width="48" height="37" viewBox="0 0 48 37" fill="none" xmlns="http://www.w3.org/2000/svg">
<path d="M29.9231 3L30.1062 0.506713L30.0147 0.5H29.9231V3ZM29.9231 34V36.5H30.0147L30.1062 36.4933L29.9231 34ZM17.5385 11.0357C18.9192 11.0357 20.0385 9.91643 20.0385 8.53571C20.0385 7.155 18.9192 6.03571 17.5385 6.03571V11.0357ZM3 6.03571C1.61929 6.03571 0.5 7.155 0.5 8.53571C0.5 9.91643 1.61929 11.0357 3 11.0357V6.03571ZM17.5385 17.6786C18.9192 17.6786 20.0385 16.5593 20.0385 15.1786C20.0385 13.7979 18.9192 12.6786 17.5385 12.6786V17.6786ZM3 12.6786C1.61929 12.6786 0.5 13.7979 0.5 15.1786C0.5 16.5593 1.61929 17.6786 3 17.6786V12.6786ZM17.5385 24.3214C18.9192 24.3214 20.0385 23.2021 20.0385 21.8214C20.0385 20.4407 18.9192 19.3214 17.5385 19.3214V24.3214ZM3 19.3214C1.61929 19.3214 0.5 20.4407 0.5 21.8214C0.5 23.2021 1.61929 24.3214 3 24.3214V19.3214ZM17.5385 30.9643C18.9192 30.9643 20.0385 29.845 20.0385 28.4643C20.0385 27.0836 18.9192 25.9643 17.5385 25.9643V30.9643ZM3 25.9643C1.61929 25.9643 0.5 27.0836 0.5 28.4643C0.5 29.845 1.61929 30.9643 3 30.9643V25.9643ZM29.74 5.49329C31.7467 5.64064 35.0356 6.69614 37.7839 8.89597C40.4567 11.0353 42.5 14.1466 42.5 18.5H47.5C47.5 12.3355 44.5177 7.88136 40.9084 4.99242C37.3747 2.16398 33.1251 0.728403 30.1062 0.506713L29.74 5.49329ZM29.9231 0.5C28.7963 0.5 27.6125 0.63671 26.5011 1.11632C25.3355 1.61929 24.3905 2.43879 23.6924 3.56501C22.4119 5.63085 22.0385 8.62921 22.0385 12.4107H27.0385C27.0385 8.66365 27.4727 6.95665 27.9422 6.19928C28.1191 5.91389 28.2847 5.79231 28.4821 5.70711C28.7337 5.59856 29.1652 5.5 29.9231 5.5V0.5ZM30.1062 36.4933C33.1251 36.2716 37.3747 34.836 40.9084 32.0076C44.5177 29.1186 47.5 24.6645 47.5 18.5H42.5C42.5 22.8534 40.4567 25.9647 37.7839 28.104C35.0356 30.3039 31.7467 31.3594 29.74 31.5067L30.1062 36.4933ZM29.9231 31.5C29.1652 31.5 28.7337 31.4014 28.4821 31.2929C28.2847 31.2077 28.1191 31.0861 27.9422 30.8007C27.4727 30.0434 27.0385 28.3363 27.0385 24.5893H22.0385C22.0385 28.3708 22.4119 31.3691 23.6924 33.435C24.3905 34.5612 25.3355 35.3807 26.5011 35.8837C27.6125 36.3633 28.7963 36.5 29.9231 36.5V31.5ZM27.0385 24.5893V12.4107H22.0385V24.5893H27.0385ZM17.5385 6.03571H3V11.0357H17.5385V6.03571ZM17.5385 12.6786H3V17.6786H17.5385V12.6786ZM17.5385 19.3214H3V24.3214H17.5385V19.3214ZM17.5385 25.9643H3V30.9643H17.5385V25.9643Z" fill="white"/>
</svg>
