<svg width="452" height="88" viewBox="0 0 452 88" fill="none" xmlns="http://www.w3.org/2000/svg">
<g filter="url(#filter0_d)">
<rect x="4" width="444" height="80" rx="40" fill="#30D5C8"/>
</g>
<path d="M174.928 52.28C173.061 52.28 171.428 51.9883 170.028 51.405C168.628 50.7983 167.543 49.9467 166.773 48.85C166.026 47.73 165.653 46.435 165.653 44.965V44.195C165.653 44.0783 165.688 43.985 165.758 43.915C165.851 43.8217 165.956 43.775 166.073 43.775H170.063C170.18 43.775 170.273 43.8217 170.343 43.915C170.436 43.985 170.483 44.0783 170.483 44.195V44.72C170.483 45.6533 170.915 46.4467 171.778 47.1C172.641 47.73 173.808 48.045 175.278 48.045C176.515 48.045 177.436 47.7883 178.043 47.275C178.65 46.7383 178.953 46.085 178.953 45.315C178.953 44.755 178.766 44.2883 178.393 43.915C178.02 43.5183 177.506 43.18 176.853 42.9C176.223 42.5967 175.208 42.1883 173.808 41.675C172.245 41.1383 170.915 40.59 169.818 40.03C168.745 39.47 167.835 38.7117 167.088 37.755C166.365 36.775 166.003 35.5733 166.003 34.15C166.003 32.75 166.365 31.525 167.088 30.475C167.811 29.425 168.815 28.62 170.098 28.06C171.381 27.5 172.863 27.22 174.543 27.22C176.316 27.22 177.891 27.535 179.268 28.165C180.668 28.795 181.753 29.6817 182.523 30.825C183.316 31.945 183.713 33.2517 183.713 34.745V35.27C183.713 35.3867 183.666 35.4917 183.573 35.585C183.503 35.655 183.41 35.69 183.293 35.69H179.268C179.151 35.69 179.046 35.655 178.953 35.585C178.883 35.4917 178.848 35.3867 178.848 35.27V34.99C178.848 34.01 178.44 33.1817 177.623 32.505C176.83 31.805 175.733 31.455 174.333 31.455C173.236 31.455 172.373 31.6883 171.743 32.155C171.136 32.6217 170.833 33.2633 170.833 34.08C170.833 34.6633 171.008 35.1533 171.358 35.55C171.731 35.9467 172.268 36.3083 172.968 36.635C173.691 36.9383 174.8 37.3583 176.293 37.895C177.95 38.5017 179.245 39.0383 180.178 39.505C181.135 39.9717 181.986 40.6717 182.733 41.605C183.503 42.515 183.888 43.705 183.888 45.175C183.888 47.3683 183.083 49.1067 181.473 50.39C179.863 51.65 177.681 52.28 174.928 52.28ZM197.458 27.465C198.998 27.465 200.352 27.78 201.518 28.41C202.685 29.04 203.583 29.9383 204.213 31.105C204.867 32.2483 205.193 33.5667 205.193 35.06C205.193 36.53 204.855 37.825 204.178 38.945C203.525 40.065 202.592 40.94 201.378 41.57C200.188 42.1767 198.812 42.48 197.248 42.48H192.278C192.162 42.48 192.103 42.5383 192.103 42.655V51.58C192.103 51.6967 192.057 51.8017 191.963 51.895C191.893 51.965 191.8 52 191.683 52H187.588C187.472 52 187.367 51.965 187.273 51.895C187.203 51.8017 187.168 51.6967 187.168 51.58V27.885C187.168 27.7683 187.203 27.675 187.273 27.605C187.367 27.5117 187.472 27.465 187.588 27.465H197.458ZM196.723 38.525C197.797 38.525 198.66 38.2217 199.313 37.615C199.967 36.985 200.293 36.1683 200.293 35.165C200.293 34.1383 199.967 33.31 199.313 32.68C198.66 32.05 197.797 31.735 196.723 31.735H192.278C192.162 31.735 192.103 31.7933 192.103 31.91V38.35C192.103 38.4667 192.162 38.525 192.278 38.525H196.723ZM225.237 31.315C225.237 31.4317 225.191 31.5367 225.097 31.63C225.027 31.7 224.934 31.735 224.817 31.735H213.337C213.221 31.735 213.162 31.7933 213.162 31.91V37.335C213.162 37.4517 213.221 37.51 213.337 37.51H220.862C220.979 37.51 221.072 37.5567 221.142 37.65C221.236 37.72 221.282 37.8133 221.282 37.93V41.325C221.282 41.4417 221.236 41.5467 221.142 41.64C221.072 41.71 220.979 41.745 220.862 41.745H213.337C213.221 41.745 213.162 41.8033 213.162 41.92V47.59C213.162 47.7067 213.221 47.765 213.337 47.765H224.817C224.934 47.765 225.027 47.8117 225.097 47.905C225.191 47.975 225.237 48.0683 225.237 48.185V51.58C225.237 51.6967 225.191 51.8017 225.097 51.895C225.027 51.965 224.934 52 224.817 52H208.647C208.531 52 208.426 51.965 208.332 51.895C208.262 51.8017 208.227 51.6967 208.227 51.58V27.92C208.227 27.8033 208.262 27.71 208.332 27.64C208.426 27.5467 208.531 27.5 208.647 27.5H224.817C224.934 27.5 225.027 27.5467 225.097 27.64C225.191 27.71 225.237 27.8033 225.237 27.92V31.315ZM245.677 31.315C245.677 31.4317 245.63 31.5367 245.537 31.63C245.467 31.7 245.373 31.735 245.257 31.735H233.777C233.66 31.735 233.602 31.7933 233.602 31.91V37.335C233.602 37.4517 233.66 37.51 233.777 37.51H241.302C241.418 37.51 241.512 37.5567 241.582 37.65C241.675 37.72 241.722 37.8133 241.722 37.93V41.325C241.722 41.4417 241.675 41.5467 241.582 41.64C241.512 41.71 241.418 41.745 241.302 41.745H233.777C233.66 41.745 233.602 41.8033 233.602 41.92V47.59C233.602 47.7067 233.66 47.765 233.777 47.765H245.257C245.373 47.765 245.467 47.8117 245.537 47.905C245.63 47.975 245.677 48.0683 245.677 48.185V51.58C245.677 51.6967 245.63 51.8017 245.537 51.895C245.467 51.965 245.373 52 245.257 52H229.087C228.97 52 228.865 51.965 228.772 51.895C228.702 51.8017 228.667 51.6967 228.667 51.58V27.92C228.667 27.8033 228.702 27.71 228.772 27.64C228.865 27.5467 228.97 27.5 229.087 27.5H245.257C245.373 27.5 245.467 27.5467 245.537 27.64C245.63 27.71 245.677 27.8033 245.677 27.92V31.315ZM249.526 52C249.41 52 249.305 51.965 249.211 51.895C249.141 51.8017 249.106 51.6967 249.106 51.58V27.92C249.106 27.8033 249.141 27.71 249.211 27.64C249.305 27.5467 249.41 27.5 249.526 27.5H258.276C260.026 27.5 261.555 27.815 262.861 28.445C264.191 29.0517 265.218 29.915 265.941 31.035C266.665 32.155 267.026 33.45 267.026 34.92V44.58C267.026 46.05 266.665 47.345 265.941 48.465C265.218 49.585 264.191 50.46 262.861 51.09C261.555 51.6967 260.026 52 258.276 52H249.526ZM254.041 47.59C254.041 47.7067 254.1 47.765 254.216 47.765H258.451C259.525 47.765 260.388 47.4033 261.041 46.68C261.718 45.9567 262.068 44.9883 262.091 43.775V35.725C262.091 34.5117 261.753 33.5433 261.076 32.82C260.423 32.0967 259.536 31.735 258.416 31.735H254.216C254.1 31.735 254.041 31.7933 254.041 31.91V47.59Z" fill="white"/>
<path d="M405.5 48.5L412.5 40.5L405.5 32.5" stroke="white" stroke-width="6" stroke-linecap="round" stroke-linejoin="round"/>
<path d="M49.5 31.5L42.5 39.5L49.5 47.5" stroke="white" stroke-width="6" stroke-linecap="round" stroke-linejoin="round"/>
<defs>
<filter id="filter0_d" x="0" y="0" width="452" height="88" filterUnits="userSpaceOnUse" color-interpolation-filters="sRGB">
<feFlood flood-opacity="0" result="BackgroundImageFix"/>
<feColorMatrix in="SourceAlpha" type="matrix" values="0 0 0 0 0 0 0 0 0 0 0 0 0 0 0 0 0 0 127 0"/>
<feOffset dy="4"/>
<feGaussianBlur stdDeviation="2"/>
<feColorMatrix type="matrix" values="0 0 0 0 0 0 0 0 0 0 0 0 0 0 0 0 0 0 0.25 0"/>
<feBlend mode="normal" in2="BackgroundImageFix" result="effect1_dropShadow"/>
<feBlend mode="normal" in="SourceGraphic" in2="effect1_dropShadow" result="shape"/>
</filter>
</defs>
</svg>
