<svg width="452" height="88" viewBox="0 0 452 88" fill="none" xmlns="http://www.w3.org/2000/svg">
<g filter="url(#filter0_d)">
<rect x="4" width="444" height="80" rx="40" fill="#30D5C8"/>
</g>
<path d="M109.217 52.78C107.397 52.78 105.799 52.43 104.422 51.73C103.046 51.0067 101.984 50.0033 101.237 48.72C100.491 47.4367 100.117 45.955 100.117 44.275V36.19C100.117 34.51 100.491 33.0283 101.237 31.745C101.984 30.4617 103.046 29.47 104.422 28.77C105.799 28.07 107.397 27.72 109.217 27.72C111.014 27.72 112.589 28.0583 113.942 28.735C115.319 29.3883 116.381 30.3333 117.127 31.57C117.897 32.7833 118.282 34.195 118.282 35.805C118.282 36.015 118.142 36.1433 117.862 36.19L113.767 36.435H113.697C113.464 36.435 113.347 36.3067 113.347 36.05C113.347 34.8133 112.962 33.8217 112.192 33.075C111.446 32.3283 110.454 31.955 109.217 31.955C107.957 31.955 106.942 32.3283 106.172 33.075C105.426 33.8217 105.052 34.8133 105.052 36.05V44.485C105.052 45.6983 105.426 46.6783 106.172 47.425C106.942 48.1717 107.957 48.545 109.217 48.545C110.454 48.545 111.446 48.1717 112.192 47.425C112.962 46.6783 113.347 45.6983 113.347 44.485C113.347 44.2283 113.487 44.1 113.767 44.1L117.862 44.275C117.979 44.275 118.072 44.31 118.142 44.38C118.236 44.45 118.282 44.5317 118.282 44.625C118.282 46.235 117.897 47.6583 117.127 48.895C116.381 50.1317 115.319 51.0883 113.942 51.765C112.589 52.4417 111.014 52.78 109.217 52.78ZM136.929 52.5C136.696 52.5 136.544 52.3833 136.474 52.15L135.424 48.72C135.378 48.6267 135.319 48.58 135.249 48.58H126.639C126.569 48.58 126.511 48.6267 126.464 48.72L125.449 52.15C125.379 52.3833 125.228 52.5 124.994 52.5H120.549C120.409 52.5 120.304 52.465 120.234 52.395C120.164 52.3017 120.153 52.1733 120.199 52.01L127.759 28.35C127.829 28.1167 127.981 28 128.214 28H133.709C133.943 28 134.094 28.1167 134.164 28.35L141.724 52.01C141.748 52.0567 141.759 52.115 141.759 52.185C141.759 52.395 141.631 52.5 141.374 52.5H136.929ZM127.724 44.555C127.701 44.695 127.748 44.765 127.864 44.765H134.024C134.164 44.765 134.211 44.695 134.164 44.555L131.014 34.16C130.991 34.0667 130.956 34.0317 130.909 34.055C130.863 34.055 130.828 34.09 130.804 34.16L127.724 44.555ZM158.276 52.5C158.042 52.5 157.879 52.395 157.786 52.185L153.411 42.49C153.364 42.3967 153.294 42.35 153.201 42.35H149.946C149.829 42.35 149.771 42.4083 149.771 42.525V52.08C149.771 52.1967 149.724 52.3017 149.631 52.395C149.561 52.465 149.467 52.5 149.351 52.5H145.256C145.139 52.5 145.034 52.465 144.941 52.395C144.871 52.3017 144.836 52.1967 144.836 52.08V28.42C144.836 28.3033 144.871 28.21 144.941 28.14C145.034 28.0467 145.139 28 145.256 28H155.266C156.759 28 158.066 28.3033 159.186 28.91C160.329 29.5167 161.204 30.38 161.811 31.5C162.441 32.62 162.756 33.915 162.756 35.385C162.756 36.9717 162.359 38.3367 161.566 39.48C160.772 40.6 159.664 41.3933 158.241 41.86C158.124 41.9067 158.089 41.9883 158.136 42.105L162.896 52.01C162.942 52.1033 162.966 52.1733 162.966 52.22C162.966 52.4067 162.837 52.5 162.581 52.5H158.276ZM149.946 32.235C149.829 32.235 149.771 32.2933 149.771 32.41V38.395C149.771 38.5117 149.829 38.57 149.946 38.57H154.531C155.511 38.57 156.304 38.2783 156.911 37.695C157.541 37.1117 157.856 36.3533 157.856 35.42C157.856 34.4867 157.541 33.7283 156.911 33.145C156.304 32.5383 155.511 32.235 154.531 32.235H149.946ZM180.86 39.725C180.72 39.795 180.72 39.865 180.86 39.935C183.076 41.0783 184.185 42.98 184.185 45.64C184.185 47.9033 183.415 49.6183 181.875 50.785C180.335 51.9283 178.316 52.5 175.82 52.5H166.755C166.638 52.5 166.533 52.465 166.44 52.395C166.37 52.3017 166.335 52.1967 166.335 52.08V28.42C166.335 28.3033 166.37 28.21 166.44 28.14C166.533 28.0467 166.638 28 166.755 28H175.54C181.07 28 183.835 30.24 183.835 34.72C183.835 37.0533 182.843 38.7217 180.86 39.725ZM171.445 32.235C171.328 32.235 171.27 32.2933 171.27 32.41V37.87C171.27 37.9867 171.328 38.045 171.445 38.045H175.54C176.636 38.045 177.488 37.7883 178.095 37.275C178.701 36.7617 179.005 36.0617 179.005 35.175C179.005 34.265 178.701 33.5533 178.095 33.04C177.488 32.5033 176.636 32.235 175.54 32.235H171.445ZM175.82 48.23C176.893 48.23 177.733 47.9617 178.34 47.425C178.946 46.865 179.25 46.1067 179.25 45.15C179.25 44.1933 178.946 43.4467 178.34 42.91C177.733 42.35 176.881 42.07 175.785 42.07H171.445C171.328 42.07 171.27 42.1283 171.27 42.245V48.055C171.27 48.1717 171.328 48.23 171.445 48.23H175.82ZM196.72 52.885C194.9 52.885 193.29 52.5117 191.89 51.765C190.513 51.0183 189.44 49.98 188.67 48.65C187.9 47.2967 187.515 45.745 187.515 43.995V36.505C187.515 34.7783 187.9 33.25 188.67 31.92C189.44 30.59 190.513 29.5633 191.89 28.84C193.29 28.0933 194.9 27.72 196.72 27.72C198.563 27.72 200.173 28.0933 201.55 28.84C202.95 29.5633 204.035 30.59 204.805 31.92C205.575 33.25 205.96 34.7783 205.96 36.505V43.995C205.96 45.745 205.575 47.2967 204.805 48.65C204.035 50.0033 202.95 51.0533 201.55 51.8C200.173 52.5233 198.563 52.885 196.72 52.885ZM196.72 48.65C198.003 48.65 199.041 48.2417 199.835 47.425C200.628 46.6083 201.025 45.5233 201.025 44.17V36.47C201.025 35.1167 200.628 34.0317 199.835 33.215C199.065 32.375 198.026 31.955 196.72 31.955C195.436 31.955 194.398 32.375 193.605 33.215C192.835 34.0317 192.45 35.1167 192.45 36.47V44.17C192.45 45.5233 192.835 46.6083 193.605 47.425C194.398 48.2417 195.436 48.65 196.72 48.65ZM223.813 28.42C223.813 28.3033 223.848 28.21 223.918 28.14C224.011 28.0467 224.116 28 224.233 28H228.328C228.445 28 228.538 28.0467 228.608 28.14C228.701 28.21 228.748 28.3033 228.748 28.42V52.08C228.748 52.1967 228.701 52.3017 228.608 52.395C228.538 52.465 228.445 52.5 228.328 52.5H224.373C224.14 52.5 223.976 52.4067 223.883 52.22L214.818 37.24C214.771 37.17 214.725 37.1467 214.678 37.17C214.631 37.17 214.608 37.2167 214.608 37.31L214.678 52.08C214.678 52.1967 214.631 52.3017 214.538 52.395C214.468 52.465 214.375 52.5 214.258 52.5H210.163C210.046 52.5 209.941 52.465 209.848 52.395C209.778 52.3017 209.743 52.1967 209.743 52.08V28.42C209.743 28.3033 209.778 28.21 209.848 28.14C209.941 28.0467 210.046 28 210.163 28H214.118C214.351 28 214.515 28.0933 214.608 28.28L223.638 43.19C223.685 43.26 223.731 43.295 223.778 43.295C223.825 43.2717 223.848 43.2133 223.848 43.12L223.813 28.42ZM248.741 52.885C246.921 52.885 245.311 52.5117 243.911 51.765C242.534 51.0183 241.461 49.98 240.691 48.65C239.921 47.2967 239.536 45.745 239.536 43.995V36.505C239.536 34.7783 239.921 33.25 240.691 31.92C241.461 30.59 242.534 29.5633 243.911 28.84C245.311 28.0933 246.921 27.72 248.741 27.72C250.584 27.72 252.194 28.0933 253.571 28.84C254.971 29.5633 256.056 30.59 256.826 31.92C257.596 33.25 257.981 34.7783 257.981 36.505V43.995C257.981 45.745 257.596 47.2967 256.826 48.65C256.056 50.0033 254.971 51.0533 253.571 51.8C252.194 52.5233 250.584 52.885 248.741 52.885ZM248.741 48.65C250.024 48.65 251.063 48.2417 251.856 47.425C252.649 46.6083 253.046 45.5233 253.046 44.17V36.47C253.046 35.1167 252.649 34.0317 251.856 33.215C251.086 32.375 250.048 31.955 248.741 31.955C247.458 31.955 246.419 32.375 245.626 33.215C244.856 34.0317 244.471 35.1167 244.471 36.47V44.17C244.471 45.5233 244.856 46.6083 245.626 47.425C246.419 48.2417 247.458 48.65 248.741 48.65ZM278.739 31.815C278.739 31.9317 278.693 32.0367 278.599 32.13C278.529 32.2 278.436 32.235 278.319 32.235H266.874C266.758 32.235 266.699 32.2933 266.699 32.41V37.835C266.699 37.9517 266.758 38.01 266.874 38.01H274.399C274.516 38.01 274.609 38.0567 274.679 38.15C274.773 38.22 274.819 38.3133 274.819 38.43V41.825C274.819 41.9417 274.773 42.0467 274.679 42.14C274.609 42.21 274.516 42.245 274.399 42.245H266.874C266.758 42.245 266.699 42.3033 266.699 42.42V52.08C266.699 52.1967 266.653 52.3017 266.559 52.395C266.489 52.465 266.396 52.5 266.279 52.5H262.184C262.068 52.5 261.963 52.465 261.869 52.395C261.799 52.3017 261.764 52.1967 261.764 52.08V28.42C261.764 28.3033 261.799 28.21 261.869 28.14C261.963 28.0467 262.068 28 262.184 28H278.319C278.436 28 278.529 28.0467 278.599 28.14C278.693 28.21 278.739 28.3033 278.739 28.42V31.815ZM298.324 31.815C298.324 31.9317 298.278 32.0367 298.184 32.13C298.114 32.2 298.021 32.235 297.904 32.235H286.459C286.343 32.235 286.284 32.2933 286.284 32.41V37.835C286.284 37.9517 286.343 38.01 286.459 38.01H293.984C294.101 38.01 294.194 38.0567 294.264 38.15C294.358 38.22 294.404 38.3133 294.404 38.43V41.825C294.404 41.9417 294.358 42.0467 294.264 42.14C294.194 42.21 294.101 42.245 293.984 42.245H286.459C286.343 42.245 286.284 42.3033 286.284 42.42V52.08C286.284 52.1967 286.238 52.3017 286.144 52.395C286.074 52.465 285.981 52.5 285.864 52.5H281.769C281.653 52.5 281.548 52.465 281.454 52.395C281.384 52.3017 281.349 52.1967 281.349 52.08V28.42C281.349 28.3033 281.384 28.21 281.454 28.14C281.548 28.0467 281.653 28 281.769 28H297.904C298.021 28 298.114 28.0467 298.184 28.14C298.278 28.21 298.324 28.3033 298.324 28.42V31.815ZM309.334 52.78C307.468 52.78 305.834 52.4883 304.434 51.905C303.034 51.2983 301.949 50.4467 301.179 49.35C300.433 48.23 300.059 46.935 300.059 45.465V44.695C300.059 44.5783 300.094 44.485 300.164 44.415C300.258 44.3217 300.363 44.275 300.479 44.275H304.469C304.586 44.275 304.679 44.3217 304.749 44.415C304.843 44.485 304.889 44.5783 304.889 44.695V45.22C304.889 46.1533 305.321 46.9467 306.184 47.6C307.048 48.23 308.214 48.545 309.684 48.545C310.921 48.545 311.843 48.2883 312.449 47.775C313.056 47.2383 313.359 46.585 313.359 45.815C313.359 45.255 313.173 44.7883 312.799 44.415C312.426 44.0183 311.913 43.68 311.259 43.4C310.629 43.0967 309.614 42.6883 308.214 42.175C306.651 41.6383 305.321 41.09 304.224 40.53C303.151 39.97 302.241 39.2117 301.494 38.255C300.771 37.275 300.409 36.0733 300.409 34.65C300.409 33.25 300.771 32.025 301.494 30.975C302.218 29.925 303.221 29.12 304.504 28.56C305.788 28 307.269 27.72 308.949 27.72C310.723 27.72 312.298 28.035 313.674 28.665C315.074 29.295 316.159 30.1817 316.929 31.325C317.723 32.445 318.119 33.7517 318.119 35.245V35.77C318.119 35.8867 318.073 35.9917 317.979 36.085C317.909 36.155 317.816 36.19 317.699 36.19H313.674C313.558 36.19 313.453 36.155 313.359 36.085C313.289 35.9917 313.254 35.8867 313.254 35.77V35.49C313.254 34.51 312.846 33.6817 312.029 33.005C311.236 32.305 310.139 31.955 308.739 31.955C307.643 31.955 306.779 32.1883 306.149 32.655C305.543 33.1217 305.239 33.7633 305.239 34.58C305.239 35.1633 305.414 35.6533 305.764 36.05C306.138 36.4467 306.674 36.8083 307.374 37.135C308.098 37.4383 309.206 37.8583 310.699 38.395C312.356 39.0017 313.651 39.5383 314.584 40.005C315.541 40.4717 316.393 41.1717 317.139 42.105C317.909 43.015 318.294 44.205 318.294 45.675C318.294 47.8683 317.489 49.6067 315.879 50.89C314.269 52.15 312.088 52.78 309.334 52.78ZM338.76 31.815C338.76 31.9317 338.713 32.0367 338.62 32.13C338.55 32.2 338.456 32.235 338.34 32.235H326.86C326.743 32.235 326.685 32.2933 326.685 32.41V37.835C326.685 37.9517 326.743 38.01 326.86 38.01H334.385C334.501 38.01 334.595 38.0567 334.665 38.15C334.758 38.22 334.805 38.3133 334.805 38.43V41.825C334.805 41.9417 334.758 42.0467 334.665 42.14C334.595 42.21 334.501 42.245 334.385 42.245H326.86C326.743 42.245 326.685 42.3033 326.685 42.42V48.09C326.685 48.2067 326.743 48.265 326.86 48.265H338.34C338.456 48.265 338.55 48.3117 338.62 48.405C338.713 48.475 338.76 48.5683 338.76 48.685V52.08C338.76 52.1967 338.713 52.3017 338.62 52.395C338.55 52.465 338.456 52.5 338.34 52.5H322.17C322.053 52.5 321.948 52.465 321.855 52.395C321.785 52.3017 321.75 52.1967 321.75 52.08V28.42C321.75 28.3033 321.785 28.21 321.855 28.14C321.948 28.0467 322.053 28 322.17 28H338.34C338.456 28 338.55 28.0467 338.62 28.14C338.713 28.21 338.76 28.3033 338.76 28.42V31.815ZM359.094 28C359.211 28 359.304 28.0467 359.374 28.14C359.468 28.21 359.514 28.3033 359.514 28.42V31.85C359.514 31.9667 359.468 32.0717 359.374 32.165C359.304 32.235 359.211 32.27 359.094 32.27H352.829C352.713 32.27 352.654 32.3283 352.654 32.445V52.08C352.654 52.1967 352.608 52.3017 352.514 52.395C352.444 52.465 352.351 52.5 352.234 52.5H348.139C348.023 52.5 347.918 52.465 347.824 52.395C347.754 52.3017 347.719 52.1967 347.719 52.08V32.445C347.719 32.3283 347.661 32.27 347.544 32.27H341.454C341.338 32.27 341.233 32.235 341.139 32.165C341.069 32.0717 341.034 31.9667 341.034 31.85V28.42C341.034 28.3033 341.069 28.21 341.139 28.14C341.233 28.0467 341.338 28 341.454 28H359.094Z" fill="white"/>
<path d="M405.5 48.5L412.5 40.5L405.5 32.5" stroke="white" stroke-width="6" stroke-linecap="round" stroke-linejoin="round"/>
<path d="M49.5 31.5L42.5 39.5L49.5 47.5" stroke="white" stroke-width="6" stroke-linecap="round" stroke-linejoin="round"/>
<defs>
<filter id="filter0_d" x="0" y="0" width="452" height="88" filterUnits="userSpaceOnUse" color-interpolation-filters="sRGB">
<feFlood flood-opacity="0" result="BackgroundImageFix"/>
<feColorMatrix in="SourceAlpha" type="matrix" values="0 0 0 0 0 0 0 0 0 0 0 0 0 0 0 0 0 0 127 0"/>
<feOffset dy="4"/>
<feGaussianBlur stdDeviation="2"/>
<feColorMatrix type="matrix" values="0 0 0 0 0 0 0 0 0 0 0 0 0 0 0 0 0 0 0.25 0"/>
<feBlend mode="normal" in2="BackgroundImageFix" result="effect1_dropShadow"/>
<feBlend mode="normal" in="SourceGraphic" in2="effect1_dropShadow" result="shape"/>
</filter>
</defs>
</svg>
