<svg width="452" height="88" viewBox="0 0 452 88" fill="none" xmlns="http://www.w3.org/2000/svg">
<g filter="url(#filter0_d)">
<rect x="4" width="444" height="80" rx="40" fill="#30D5C8"/>
</g>
<path d="M127.04 28C127.157 28 127.25 28.0467 127.32 28.14C127.413 28.21 127.46 28.3033 127.46 28.42V31.85C127.46 31.9667 127.413 32.0717 127.32 32.165C127.25 32.235 127.157 32.27 127.04 32.27H120.775C120.658 32.27 120.6 32.3283 120.6 32.445V52.08C120.6 52.1967 120.553 52.3017 120.46 52.395C120.39 52.465 120.297 52.5 120.18 52.5H116.085C115.968 52.5 115.863 52.465 115.77 52.395C115.7 52.3017 115.665 52.1967 115.665 52.08V32.445C115.665 32.3283 115.607 32.27 115.49 32.27H109.4C109.283 32.27 109.178 32.235 109.085 32.165C109.015 32.0717 108.98 31.9667 108.98 31.85V28.42C108.98 28.3033 109.015 28.21 109.085 28.14C109.178 28.0467 109.283 28 109.4 28H127.04ZM147.619 31.815C147.619 31.9317 147.572 32.0367 147.479 32.13C147.409 32.2 147.315 32.235 147.199 32.235H135.719C135.602 32.235 135.544 32.2933 135.544 32.41V37.835C135.544 37.9517 135.602 38.01 135.719 38.01H143.244C143.36 38.01 143.454 38.0567 143.524 38.15C143.617 38.22 143.664 38.3133 143.664 38.43V41.825C143.664 41.9417 143.617 42.0467 143.524 42.14C143.454 42.21 143.36 42.245 143.244 42.245H135.719C135.602 42.245 135.544 42.3033 135.544 42.42V48.09C135.544 48.2067 135.602 48.265 135.719 48.265H147.199C147.315 48.265 147.409 48.3117 147.479 48.405C147.572 48.475 147.619 48.5683 147.619 48.685V52.08C147.619 52.1967 147.572 52.3017 147.479 52.395C147.409 52.465 147.315 52.5 147.199 52.5H131.029C130.912 52.5 130.807 52.465 130.714 52.395C130.644 52.3017 130.609 52.1967 130.609 52.08V28.42C130.609 28.3033 130.644 28.21 130.714 28.14C130.807 28.0467 130.912 28 131.029 28H147.199C147.315 28 147.409 28.0467 147.479 28.14C147.572 28.21 147.619 28.3033 147.619 28.42V31.815ZM166.798 28.28C166.915 28.0933 167.078 28 167.288 28H171.383C171.5 28 171.593 28.0467 171.663 28.14C171.756 28.21 171.803 28.3033 171.803 28.42V52.08C171.803 52.1967 171.756 52.3017 171.663 52.395C171.593 52.465 171.5 52.5 171.383 52.5H167.288C167.171 52.5 167.066 52.465 166.973 52.395C166.903 52.3017 166.868 52.1967 166.868 52.08V36.645C166.868 36.5517 166.845 36.505 166.798 36.505C166.751 36.505 166.705 36.54 166.658 36.61L162.948 42.42C162.831 42.6067 162.668 42.7 162.458 42.7H160.393C160.183 42.7 160.02 42.6067 159.903 42.42L156.193 36.61C156.146 36.54 156.1 36.5167 156.053 36.54C156.006 36.54 155.983 36.5867 155.983 36.68V52.08C155.983 52.1967 155.936 52.3017 155.843 52.395C155.773 52.465 155.68 52.5 155.563 52.5H151.468C151.351 52.5 151.246 52.465 151.153 52.395C151.083 52.3017 151.048 52.1967 151.048 52.08V28.42C151.048 28.3033 151.083 28.21 151.153 28.14C151.246 28.0467 151.351 28 151.468 28H155.563C155.773 28 155.936 28.0933 156.053 28.28L161.303 36.435C161.373 36.575 161.443 36.575 161.513 36.435L166.798 28.28ZM186.183 27.965C187.723 27.965 189.076 28.28 190.243 28.91C191.409 29.54 192.308 30.4383 192.938 31.605C193.591 32.7483 193.918 34.0667 193.918 35.56C193.918 37.03 193.579 38.325 192.903 39.445C192.249 40.565 191.316 41.44 190.103 42.07C188.913 42.6767 187.536 42.98 185.973 42.98H181.003C180.886 42.98 180.828 43.0383 180.828 43.155V52.08C180.828 52.1967 180.781 52.3017 180.688 52.395C180.618 52.465 180.524 52.5 180.408 52.5H176.313C176.196 52.5 176.091 52.465 175.998 52.395C175.928 52.3017 175.893 52.1967 175.893 52.08V28.385C175.893 28.2683 175.928 28.175 175.998 28.105C176.091 28.0117 176.196 27.965 176.313 27.965H186.183ZM185.448 39.025C186.521 39.025 187.384 38.7217 188.038 38.115C188.691 37.485 189.018 36.6683 189.018 35.665C189.018 34.6383 188.691 33.81 188.038 33.18C187.384 32.55 186.521 32.235 185.448 32.235H181.003C180.886 32.235 180.828 32.2933 180.828 32.41V38.85C180.828 38.9667 180.886 39.025 181.003 39.025H185.448ZM213.961 31.815C213.961 31.9317 213.915 32.0367 213.821 32.13C213.751 32.2 213.658 32.235 213.541 32.235H202.061C201.945 32.235 201.886 32.2933 201.886 32.41V37.835C201.886 37.9517 201.945 38.01 202.061 38.01H209.586C209.703 38.01 209.796 38.0567 209.866 38.15C209.96 38.22 210.006 38.3133 210.006 38.43V41.825C210.006 41.9417 209.96 42.0467 209.866 42.14C209.796 42.21 209.703 42.245 209.586 42.245H202.061C201.945 42.245 201.886 42.3033 201.886 42.42V48.09C201.886 48.2067 201.945 48.265 202.061 48.265H213.541C213.658 48.265 213.751 48.3117 213.821 48.405C213.915 48.475 213.961 48.5683 213.961 48.685V52.08C213.961 52.1967 213.915 52.3017 213.821 52.395C213.751 52.465 213.658 52.5 213.541 52.5H197.371C197.255 52.5 197.15 52.465 197.056 52.395C196.986 52.3017 196.951 52.1967 196.951 52.08V28.42C196.951 28.3033 196.986 28.21 197.056 28.14C197.15 28.0467 197.255 28 197.371 28H213.541C213.658 28 213.751 28.0467 213.821 28.14C213.915 28.21 213.961 28.3033 213.961 28.42V31.815ZM230.831 52.5C230.598 52.5 230.434 52.395 230.341 52.185L225.966 42.49C225.919 42.3967 225.849 42.35 225.756 42.35H222.501C222.384 42.35 222.326 42.4083 222.326 42.525V52.08C222.326 52.1967 222.279 52.3017 222.186 52.395C222.116 52.465 222.023 52.5 221.906 52.5H217.811C217.694 52.5 217.589 52.465 217.496 52.395C217.426 52.3017 217.391 52.1967 217.391 52.08V28.42C217.391 28.3033 217.426 28.21 217.496 28.14C217.589 28.0467 217.694 28 217.811 28H227.821C229.314 28 230.621 28.3033 231.741 28.91C232.884 29.5167 233.759 30.38 234.366 31.5C234.996 32.62 235.311 33.915 235.311 35.385C235.311 36.9717 234.914 38.3367 234.121 39.48C233.328 40.6 232.219 41.3933 230.796 41.86C230.679 41.9067 230.644 41.9883 230.691 42.105L235.451 52.01C235.498 52.1033 235.521 52.1733 235.521 52.22C235.521 52.4067 235.393 52.5 235.136 52.5H230.831ZM222.501 32.235C222.384 32.235 222.326 32.2933 222.326 32.41V38.395C222.326 38.5117 222.384 38.57 222.501 38.57H227.086C228.066 38.57 228.859 38.2783 229.466 37.695C230.096 37.1117 230.411 36.3533 230.411 35.42C230.411 34.4867 230.096 33.7283 229.466 33.145C228.859 32.5383 228.066 32.235 227.086 32.235H222.501ZM254.978 52.5C254.744 52.5 254.593 52.3833 254.523 52.15L253.473 48.72C253.426 48.6267 253.368 48.58 253.298 48.58H244.688C244.618 48.58 244.559 48.6267 244.513 48.72L243.498 52.15C243.428 52.3833 243.276 52.5 243.043 52.5H238.598C238.458 52.5 238.353 52.465 238.283 52.395C238.213 52.3017 238.201 52.1733 238.248 52.01L245.808 28.35C245.878 28.1167 246.029 28 246.263 28H251.758C251.991 28 252.143 28.1167 252.213 28.35L259.773 52.01C259.796 52.0567 259.808 52.115 259.808 52.185C259.808 52.395 259.679 52.5 259.423 52.5H254.978ZM245.773 44.555C245.749 44.695 245.796 44.765 245.913 44.765H252.073C252.213 44.765 252.259 44.695 252.213 44.555L249.063 34.16C249.039 34.0667 249.004 34.0317 248.958 34.055C248.911 34.055 248.876 34.09 248.853 34.16L245.773 44.555ZM276.781 28C276.898 28 276.991 28.0467 277.061 28.14C277.155 28.21 277.201 28.3033 277.201 28.42V31.85C277.201 31.9667 277.155 32.0717 277.061 32.165C276.991 32.235 276.898 32.27 276.781 32.27H270.516C270.4 32.27 270.341 32.3283 270.341 32.445V52.08C270.341 52.1967 270.295 52.3017 270.201 52.395C270.131 52.465 270.038 52.5 269.921 52.5H265.826C265.71 52.5 265.605 52.465 265.511 52.395C265.441 52.3017 265.406 52.1967 265.406 52.08V32.445C265.406 32.3283 265.348 32.27 265.231 32.27H259.141C259.025 32.27 258.92 32.235 258.826 32.165C258.756 32.0717 258.721 31.9667 258.721 31.85V28.42C258.721 28.3033 258.756 28.21 258.826 28.14C258.92 28.0467 259.025 28 259.141 28H276.781ZM289.24 52.78C287.443 52.78 285.857 52.43 284.48 51.73C283.127 51.03 282.065 50.05 281.295 48.79C280.548 47.5067 280.175 46.0367 280.175 44.38V28.42C280.175 28.3033 280.21 28.21 280.28 28.14C280.373 28.0467 280.478 28 280.595 28H284.69C284.807 28 284.9 28.0467 284.97 28.14C285.063 28.21 285.11 28.3033 285.11 28.42V44.415C285.11 45.6517 285.483 46.655 286.23 47.425C287 48.1717 288.003 48.545 289.24 48.545C290.477 48.545 291.468 48.1717 292.215 47.425C292.985 46.655 293.37 45.6517 293.37 44.415V28.42C293.37 28.3033 293.405 28.21 293.475 28.14C293.568 28.0467 293.673 28 293.79 28H297.885C298.002 28 298.095 28.0467 298.165 28.14C298.258 28.21 298.305 28.3033 298.305 28.42V44.38C298.305 46.0367 297.92 47.5067 297.15 48.79C296.403 50.05 295.342 51.03 293.965 51.73C292.612 52.43 291.037 52.78 289.24 52.78ZM315.802 52.5C315.568 52.5 315.405 52.395 315.312 52.185L310.937 42.49C310.89 42.3967 310.82 42.35 310.727 42.35H307.472C307.355 42.35 307.297 42.4083 307.297 42.525V52.08C307.297 52.1967 307.25 52.3017 307.157 52.395C307.087 52.465 306.993 52.5 306.877 52.5H302.782C302.665 52.5 302.56 52.465 302.467 52.395C302.397 52.3017 302.362 52.1967 302.362 52.08V28.42C302.362 28.3033 302.397 28.21 302.467 28.14C302.56 28.0467 302.665 28 302.782 28H312.792C314.285 28 315.592 28.3033 316.712 28.91C317.855 29.5167 318.73 30.38 319.337 31.5C319.967 32.62 320.282 33.915 320.282 35.385C320.282 36.9717 319.885 38.3367 319.092 39.48C318.298 40.6 317.19 41.3933 315.767 41.86C315.65 41.9067 315.615 41.9883 315.662 42.105L320.422 52.01C320.468 52.1033 320.492 52.1733 320.492 52.22C320.492 52.4067 320.363 52.5 320.107 52.5H315.802ZM307.472 32.235C307.355 32.235 307.297 32.2933 307.297 32.41V38.395C307.297 38.5117 307.355 38.57 307.472 38.57H312.057C313.037 38.57 313.83 38.2783 314.437 37.695C315.067 37.1117 315.382 36.3533 315.382 35.42C315.382 34.4867 315.067 33.7283 314.437 33.145C313.83 32.5383 313.037 32.235 312.057 32.235H307.472ZM340.871 31.815C340.871 31.9317 340.824 32.0367 340.731 32.13C340.661 32.2 340.567 32.235 340.451 32.235H328.971C328.854 32.235 328.796 32.2933 328.796 32.41V37.835C328.796 37.9517 328.854 38.01 328.971 38.01H336.496C336.612 38.01 336.706 38.0567 336.776 38.15C336.869 38.22 336.916 38.3133 336.916 38.43V41.825C336.916 41.9417 336.869 42.0467 336.776 42.14C336.706 42.21 336.612 42.245 336.496 42.245H328.971C328.854 42.245 328.796 42.3033 328.796 42.42V48.09C328.796 48.2067 328.854 48.265 328.971 48.265H340.451C340.567 48.265 340.661 48.3117 340.731 48.405C340.824 48.475 340.871 48.5683 340.871 48.685V52.08C340.871 52.1967 340.824 52.3017 340.731 52.395C340.661 52.465 340.567 52.5 340.451 52.5H324.281C324.164 52.5 324.059 52.465 323.966 52.395C323.896 52.3017 323.861 52.1967 323.861 52.08V28.42C323.861 28.3033 323.896 28.21 323.966 28.14C324.059 28.0467 324.164 28 324.281 28H340.451C340.567 28 340.661 28.0467 340.731 28.14C340.824 28.21 340.871 28.3033 340.871 28.42V31.815Z" fill="white"/>
<path d="M405.5 48.5L412.5 40.5L405.5 32.5" stroke="white" stroke-width="6" stroke-linecap="round" stroke-linejoin="round"/>
<path d="M49.5 31.5L42.5 39.5L49.5 47.5" stroke="white" stroke-width="6" stroke-linecap="round" stroke-linejoin="round"/>
<defs>
<filter id="filter0_d" x="0" y="0" width="452" height="88" filterUnits="userSpaceOnUse" color-interpolation-filters="sRGB">
<feFlood flood-opacity="0" result="BackgroundImageFix"/>
<feColorMatrix in="SourceAlpha" type="matrix" values="0 0 0 0 0 0 0 0 0 0 0 0 0 0 0 0 0 0 127 0"/>
<feOffset dy="4"/>
<feGaussianBlur stdDeviation="2"/>
<feColorMatrix type="matrix" values="0 0 0 0 0 0 0 0 0 0 0 0 0 0 0 0 0 0 0.25 0"/>
<feBlend mode="normal" in2="BackgroundImageFix" result="effect1_dropShadow"/>
<feBlend mode="normal" in="SourceGraphic" in2="effect1_dropShadow" result="shape"/>
</filter>
</defs>
</svg>
