<svg width="45" height="39" viewBox="0 0 45 39" fill="none" xmlns="http://www.w3.org/2000/svg">
<path d="M26.8333 3L27.0142 0.506549L26.9239 0.5H26.8333V3ZM26.8333 33.8V36.3H26.9239L27.0142 36.2934L26.8333 33.8ZM15.7764 10.5703C16.9198 9.79629 17.2193 8.24196 16.4453 7.09858C15.6713 5.9552 14.117 5.65575 12.9736 6.42973L15.7764 10.5703ZM1.59858 14.1297C0.455203 14.9037 0.155746 16.458 0.929726 17.6014C1.70371 18.7448 3.25804 19.0443 4.40142 18.2703L1.59858 14.1297ZM15.7764 17.1703C16.9198 16.3963 17.2193 14.842 16.4453 13.6986C15.6713 12.5552 14.117 12.2557 12.9736 13.0297L15.7764 17.1703ZM1.59858 20.7297C0.455203 21.5037 0.155746 23.058 0.929726 24.2014C1.70371 25.3448 3.25804 25.6443 4.40142 24.8703L1.59858 20.7297ZM15.7764 23.7703C16.9198 22.9963 17.2193 21.442 16.4453 20.2986C15.6713 19.1552 14.117 18.8557 12.9736 19.6297L15.7764 23.7703ZM1.59858 27.3297C0.455203 28.1037 0.155746 29.658 0.929726 30.8014C1.70371 31.9448 3.25804 32.2443 4.40142 31.4703L1.59858 27.3297ZM15.7764 30.3703C16.9198 29.5963 17.2193 28.042 16.4453 26.8986C15.6713 25.7552 14.117 25.4557 12.9736 26.2297L15.7764 30.3703ZM1.59858 33.9297C0.455203 34.7037 0.155746 36.258 0.929726 37.4014C1.70371 38.5448 3.25804 38.8443 4.40142 38.0703L1.59858 33.9297ZM26.6525 5.49345C28.681 5.64058 31.9955 6.69281 34.7621 8.87993C37.4541 11.0081 39.5 14.0933 39.5 18.4H44.5C44.5 12.2567 41.4904 7.82527 37.8629 4.95757C34.31 2.14886 30.0412 0.72609 27.0142 0.506549L26.6525 5.49345ZM26.8333 0.5C24.5021 0.5 22.1107 1.11095 20.5856 3.54105C19.2924 5.60167 18.9167 8.59108 18.9167 12.35H23.9167C23.9167 8.62892 24.3535 6.94333 24.8206 6.19895C25.0559 5.82405 25.373 5.5 26.8333 5.5V0.5ZM27.0142 36.2934C30.0412 36.0739 34.31 34.6511 37.8629 31.8424C41.4904 28.9747 44.5 24.5433 44.5 18.4H39.5C39.5 22.7067 37.4541 25.7919 34.7621 27.9201C31.9955 30.1072 28.681 31.1594 26.6525 31.3066L27.0142 36.2934ZM26.8333 31.3C25.373 31.3 25.0559 30.976 24.8206 30.601C24.3535 29.8567 23.9167 28.1711 23.9167 24.45H18.9167C18.9167 28.2089 19.2924 31.1983 20.5856 33.259C22.1107 35.689 24.5021 36.3 26.8333 36.3V31.3ZM23.9167 24.45V12.35H18.9167V24.45H23.9167ZM12.9736 6.42973L1.59858 14.1297L4.40142 18.2703L15.7764 10.5703L12.9736 6.42973ZM12.9736 13.0297L1.59858 20.7297L4.40142 24.8703L15.7764 17.1703L12.9736 13.0297ZM12.9736 19.6297L1.59858 27.3297L4.40142 31.4703L15.7764 23.7703L12.9736 19.6297ZM12.9736 26.2297L1.59858 33.9297L4.40142 38.0703L15.7764 30.3703L12.9736 26.2297Z" fill="white"/>
</svg>
