<svg width="49" height="41" viewBox="0 0 49 41" fill="none" xmlns="http://www.w3.org/2000/svg">
<path d="M29.7222 1L29.7932 0.00251979L29.7577 0H29.7222V1ZM29.7222 37.4V38.4H29.7577L29.7932 38.3975L29.7222 37.4ZM15.2614 8.33314C15.7215 8.02769 15.8469 7.40707 15.5415 6.94694C15.236 6.48681 14.6154 6.36141 14.1553 6.66686L15.2614 8.33314ZM0.446937 15.7669C-0.0131931 16.0723 -0.138588 16.6929 0.16686 17.1531C0.472309 17.6132 1.09293 17.7386 1.55306 17.4331L0.446937 15.7669ZM15.2614 16.1331C15.7215 15.8277 15.8469 15.2071 15.5415 14.7469C15.236 14.2868 14.6154 14.1614 14.1553 14.4669L15.2614 16.1331ZM0.446937 23.5669C-0.0131931 23.8723 -0.138588 24.4929 0.16686 24.9531C0.472309 25.4132 1.09293 25.5386 1.55306 25.2331L0.446937 23.5669ZM15.2614 23.9331C15.7215 23.6277 15.8469 23.0071 15.5415 22.5469C15.236 22.0868 14.6154 21.9614 14.1553 22.2669L15.2614 23.9331ZM0.446937 31.3669C-0.0131931 31.6723 -0.138588 32.2929 0.16686 32.7531C0.472309 33.2132 1.09293 33.3386 1.55306 33.0331L0.446937 31.3669ZM15.2614 31.7331C15.7215 31.4277 15.8469 30.8071 15.5415 30.3469C15.236 29.8868 14.6154 29.7614 14.1553 30.0669L15.2614 31.7331ZM0.446937 39.1669C-0.0131931 39.4723 -0.138588 40.0929 0.16686 40.5531C0.472309 41.0132 1.09293 41.1386 1.55306 40.8331L0.446937 39.1669ZM29.6513 1.99748C32.5022 2.20025 36.8827 3.59156 40.5331 6.42157C44.1544 9.22899 47 13.4005 47 19.2H49C49 12.6495 45.753 7.93768 41.7585 4.84093C37.7932 1.76677 33.0349 0.233086 29.7932 0.00251979L29.6513 1.99748ZM29.7222 0C27.2708 0 25.2246 0.605112 23.9025 2.67096C22.6717 4.59411 22.1944 7.62131 22.1944 12.05H24.1944C24.1944 7.63869 24.6963 5.14089 25.5871 3.74904C26.3865 2.49989 27.6042 2 29.7222 2V0ZM29.7932 38.3975C33.0349 38.1669 37.7932 36.6332 41.7585 33.5591C45.753 30.4623 49 25.7505 49 19.2H47C47 24.9995 44.1544 29.171 40.5331 31.9784C36.8827 34.8084 32.5022 36.1998 29.6513 36.4025L29.7932 38.3975ZM29.7222 36.4C27.6042 36.4 26.3865 35.9001 25.5871 34.651C24.6963 33.2591 24.1944 30.7613 24.1944 26.35H22.1944C22.1944 30.7787 22.6717 33.8059 23.9025 35.729C25.2246 37.7949 27.2708 38.4 29.7222 38.4V36.4ZM24.1944 26.35V12.05H22.1944V26.35H24.1944ZM14.1553 6.66686L0.446937 15.7669L1.55306 17.4331L15.2614 8.33314L14.1553 6.66686ZM14.1553 14.4669L0.446937 23.5669L1.55306 25.2331L15.2614 16.1331L14.1553 14.4669ZM14.1553 22.2669L0.446937 31.3669L1.55306 33.0331L15.2614 23.9331L14.1553 22.2669ZM14.1553 30.0669L0.446937 39.1669L1.55306 40.8331L15.2614 31.7331L14.1553 30.0669Z" fill="#25CB55"/>
</svg>
