<svg width="28" height="50" viewBox="0 0 28 50" fill="none" xmlns="http://www.w3.org/2000/svg">
<path d="M14.433 0.75C14.3437 0.595299 14.1786 0.5 14 0.5C13.8214 0.5 13.6563 0.595299 13.567 0.75L1.44263 21.75C1.35332 21.9047 1.35332 22.0953 1.44263 22.25C1.53195 22.4047 1.69701 22.5 1.87564 22.5H26.1244C26.303 22.5 26.4681 22.4047 26.5574 22.25C26.6467 22.0953 26.6467 21.9047 26.5574 21.75L14.433 0.75Z" fill="#FF5151" stroke="#FF5151" stroke-linejoin="round"/>
<path d="M13.567 49.25C13.6563 49.4047 13.8214 49.5 14 49.5C14.1786 49.5 14.3437 49.4047 14.433 49.25L26.5574 28.25C26.6467 28.0953 26.6467 27.9047 26.5574 27.75C26.4681 27.5953 26.303 27.5 26.1244 27.5L1.87564 27.5C1.69701 27.5 1.53195 27.5953 1.44263 27.75C1.35332 27.9047 1.35332 28.0953 1.44263 28.25L13.567 49.25Z" fill="#C4C4C4" stroke="#C4C4C4" stroke-linejoin="round"/>
</svg>
