<svg width="242" height="34" viewBox="0 0 242 34" fill="none" xmlns="http://www.w3.org/2000/svg">
<path d="M68.205 2.42C68.205 2.30333 68.24 2.21 68.31 2.14C68.4033 2.04667 68.5083 2 68.625 2H72.72C72.8367 2 72.93 2.04667 73 2.14C73.0933 2.21 73.14 2.30333 73.14 2.42V26.08C73.14 26.1967 73.0933 26.3017 73 26.395C72.93 26.465 72.8367 26.5 72.72 26.5H68.765C68.5317 26.5 68.3683 26.4067 68.275 26.22L59.21 11.24C59.1633 11.17 59.1167 11.1467 59.07 11.17C59.0233 11.17 59 11.2167 59 11.31L59.07 26.08C59.07 26.1967 59.0233 26.3017 58.93 26.395C58.86 26.465 58.7667 26.5 58.65 26.5H54.555C54.4383 26.5 54.3333 26.465 54.24 26.395C54.17 26.3017 54.135 26.1967 54.135 26.08V2.42C54.135 2.30333 54.17 2.21 54.24 2.14C54.3333 2.04667 54.4383 2 54.555 2H58.51C58.7433 2 58.9067 2.09333 59 2.28L68.03 17.19C68.0767 17.26 68.1233 17.295 68.17 17.295C68.2167 17.2717 68.24 17.2133 68.24 17.12L68.205 2.42ZM84.2714 8.23C85.788 8.23 87.1414 8.49833 88.3314 9.035C89.5214 9.54833 90.443 10.26 91.0964 11.17C91.773 12.08 92.1114 13.095 92.1114 14.215V26.08C92.1114 26.1967 92.0647 26.3017 91.9714 26.395C91.9014 26.465 91.808 26.5 91.6914 26.5H87.5964C87.4797 26.5 87.3747 26.465 87.2814 26.395C87.2114 26.3017 87.1764 26.1967 87.1764 26.08V24.925C87.1764 24.855 87.153 24.8083 87.1064 24.785C87.0597 24.7617 87.013 24.785 86.9664 24.855C85.9864 26.1383 84.4114 26.78 82.2414 26.78C80.4214 26.78 78.9514 26.3367 77.8314 25.45C76.7114 24.5633 76.1514 23.2567 76.1514 21.53C76.1514 19.7333 76.7814 18.345 78.0414 17.365C79.3014 16.3617 81.098 15.86 83.4314 15.86H87.0014C87.118 15.86 87.1764 15.8017 87.1764 15.685V14.915C87.1764 14.145 86.943 13.55 86.4764 13.13C86.0097 12.6867 85.3097 12.465 84.3764 12.465C83.653 12.465 83.0464 12.5933 82.5564 12.85C82.0897 13.1067 81.7864 13.4683 81.6464 13.935C81.5764 14.1917 81.4247 14.3083 81.1914 14.285L76.9564 13.725C76.6764 13.6783 76.548 13.5733 76.5714 13.41C76.6647 12.43 77.0497 11.5433 77.7264 10.75C78.4264 9.95667 79.3364 9.33833 80.4564 8.895C81.5997 8.45167 82.8714 8.23 84.2714 8.23ZM83.5714 23.105C84.5747 23.105 85.4264 22.8367 86.1264 22.3C86.8264 21.7633 87.1764 21.075 87.1764 20.235V18.975C87.1764 18.8583 87.118 18.8 87.0014 18.8H84.4814C83.4314 18.8 82.603 18.9983 81.9964 19.395C81.413 19.7917 81.1214 20.3517 81.1214 21.075C81.1214 21.705 81.343 22.2067 81.7864 22.58C82.2297 22.93 82.8247 23.105 83.5714 23.105ZM100.114 26.5C99.8807 26.5 99.7291 26.3833 99.6591 26.15L94.0591 8.965C94.0357 8.91833 94.0241 8.86 94.0241 8.79C94.0241 8.58 94.1524 8.475 94.4091 8.475H98.9241C99.1807 8.475 99.3441 8.59167 99.4141 8.825L102.284 19.43C102.307 19.5 102.342 19.535 102.389 19.535C102.436 19.535 102.471 19.5 102.494 19.43L105.364 8.825C105.434 8.59167 105.597 8.475 105.854 8.475L110.369 8.545C110.509 8.545 110.614 8.59167 110.684 8.685C110.754 8.755 110.766 8.87167 110.719 9.035L105.154 26.15C105.084 26.3833 104.932 26.5 104.699 26.5H100.114ZM115.953 6.48C115.159 6.48 114.494 6.22333 113.958 5.71C113.444 5.17333 113.188 4.50833 113.188 3.715C113.188 2.89833 113.444 2.23333 113.958 1.72C114.471 1.20667 115.136 0.949999 115.953 0.949999C116.769 0.949999 117.434 1.20667 117.948 1.72C118.461 2.23333 118.718 2.89833 118.718 3.715C118.718 4.50833 118.449 5.17333 117.913 5.71C117.399 6.22333 116.746 6.48 115.953 6.48ZM113.853 26.5C113.736 26.5 113.631 26.465 113.538 26.395C113.468 26.3017 113.433 26.1967 113.433 26.08V8.895C113.433 8.77833 113.468 8.685 113.538 8.615C113.631 8.52167 113.736 8.475 113.853 8.475H117.948C118.064 8.475 118.158 8.52167 118.228 8.615C118.321 8.685 118.368 8.77833 118.368 8.895V26.08C118.368 26.1967 118.321 26.3017 118.228 26.395C118.158 26.465 118.064 26.5 117.948 26.5H113.853ZM133.204 8.93C133.204 8.81333 133.239 8.72 133.309 8.65C133.402 8.55667 133.507 8.51 133.624 8.51H137.719C137.835 8.51 137.929 8.55667 137.999 8.65C138.092 8.72 138.139 8.81333 138.139 8.93V24.89C138.139 27.9467 137.252 30.1283 135.479 31.435C133.729 32.7417 131.465 33.395 128.689 33.395C127.872 33.395 126.962 33.3367 125.959 33.22C125.725 33.1967 125.609 33.045 125.609 32.765L125.749 29.16C125.749 28.8567 125.912 28.7283 126.239 28.775C127.079 28.915 127.849 28.985 128.549 28.985C130.042 28.985 131.185 28.6583 131.979 28.005C132.795 27.3517 133.204 26.3017 133.204 24.855C133.204 24.785 133.18 24.75 133.134 24.75C133.087 24.7267 133.04 24.7383 132.994 24.785C132.107 25.7417 130.812 26.22 129.109 26.22C127.592 26.22 126.192 25.8583 124.909 25.135C123.649 24.3883 122.75 23.1983 122.214 21.565C121.864 20.4917 121.689 19.1033 121.689 17.4C121.689 15.58 121.899 14.0983 122.319 12.955C122.809 11.5317 123.637 10.3883 124.804 9.525C125.97 8.66167 127.324 8.23 128.864 8.23C130.66 8.23 132.037 8.76667 132.994 9.84C133.04 9.88667 133.087 9.91 133.134 9.91C133.18 9.88667 133.204 9.84 133.204 9.77V8.93ZM132.924 20.235C133.11 19.535 133.204 18.5783 133.204 17.365C133.204 16.6417 133.18 16.0817 133.134 15.685C133.087 15.2883 133.005 14.915 132.889 14.565C132.679 13.935 132.329 13.4333 131.839 13.06C131.349 12.6633 130.742 12.465 130.019 12.465C129.319 12.465 128.724 12.6633 128.234 13.06C127.744 13.4333 127.382 13.935 127.149 14.565C126.822 15.265 126.659 16.21 126.659 17.4C126.659 18.7067 126.799 19.64 127.079 20.2C127.289 20.83 127.65 21.3433 128.164 21.74C128.7 22.1133 129.33 22.3 130.054 22.3C130.8 22.3 131.419 22.1133 131.909 21.74C132.399 21.3433 132.737 20.8417 132.924 20.235ZM148.837 8.23C150.353 8.23 151.707 8.49833 152.897 9.035C154.087 9.54833 155.008 10.26 155.662 11.17C156.338 12.08 156.677 13.095 156.677 14.215V26.08C156.677 26.1967 156.63 26.3017 156.537 26.395C156.467 26.465 156.373 26.5 156.257 26.5H152.162C152.045 26.5 151.94 26.465 151.847 26.395C151.777 26.3017 151.742 26.1967 151.742 26.08V24.925C151.742 24.855 151.718 24.8083 151.672 24.785C151.625 24.7617 151.578 24.785 151.532 24.855C150.552 26.1383 148.977 26.78 146.807 26.78C144.987 26.78 143.517 26.3367 142.397 25.45C141.277 24.5633 140.717 23.2567 140.717 21.53C140.717 19.7333 141.347 18.345 142.607 17.365C143.867 16.3617 145.663 15.86 147.997 15.86H151.567C151.683 15.86 151.742 15.8017 151.742 15.685V14.915C151.742 14.145 151.508 13.55 151.042 13.13C150.575 12.6867 149.875 12.465 148.942 12.465C148.218 12.465 147.612 12.5933 147.122 12.85C146.655 13.1067 146.352 13.4683 146.212 13.935C146.142 14.1917 145.99 14.3083 145.757 14.285L141.522 13.725C141.242 13.6783 141.113 13.5733 141.137 13.41C141.23 12.43 141.615 11.5433 142.292 10.75C142.992 9.95667 143.902 9.33833 145.022 8.895C146.165 8.45167 147.437 8.23 148.837 8.23ZM148.137 23.105C149.14 23.105 149.992 22.8367 150.692 22.3C151.392 21.7633 151.742 21.075 151.742 20.235V18.975C151.742 18.8583 151.683 18.8 151.567 18.8H149.047C147.997 18.8 147.168 18.9983 146.562 19.395C145.978 19.7917 145.687 20.3517 145.687 21.075C145.687 21.705 145.908 22.2067 146.352 22.58C146.795 22.93 147.39 23.105 148.137 23.105ZM170.102 12.045C170.102 12.1617 170.055 12.2667 169.962 12.36C169.892 12.43 169.799 12.465 169.682 12.465H166.322C166.205 12.465 166.147 12.5233 166.147 12.64V20.06C166.147 20.83 166.299 21.4017 166.602 21.775C166.929 22.1483 167.442 22.335 168.142 22.335H169.297C169.414 22.335 169.507 22.3817 169.577 22.475C169.67 22.545 169.717 22.6383 169.717 22.755V26.08C169.717 26.3367 169.577 26.4883 169.297 26.535C168.317 26.5817 167.617 26.605 167.197 26.605C165.26 26.605 163.814 26.29 162.857 25.66C161.9 25.0067 161.41 23.7933 161.387 22.02V12.64C161.387 12.5233 161.329 12.465 161.212 12.465H159.217C159.1 12.465 158.995 12.43 158.902 12.36C158.832 12.2667 158.797 12.1617 158.797 12.045V8.93C158.797 8.81333 158.832 8.72 158.902 8.65C158.995 8.55667 159.1 8.51 159.217 8.51H161.212C161.329 8.51 161.387 8.45167 161.387 8.335V4.17C161.387 4.05333 161.422 3.96 161.492 3.89C161.585 3.79667 161.69 3.75 161.807 3.75H165.727C165.844 3.75 165.937 3.79667 166.007 3.89C166.1 3.96 166.147 4.05333 166.147 4.17V8.335C166.147 8.45167 166.205 8.51 166.322 8.51H169.682C169.799 8.51 169.892 8.55667 169.962 8.65C170.055 8.72 170.102 8.81333 170.102 8.93V12.045ZM188.759 15.65C188.899 16.5367 188.945 17.5283 188.899 18.625C188.875 18.905 188.724 19.045 188.444 19.045H177.629C177.489 19.045 177.442 19.1033 177.489 19.22C177.559 19.6867 177.687 20.1533 177.874 20.62C178.48 21.9267 179.717 22.58 181.584 22.58C183.077 22.5567 184.255 21.95 185.119 20.76C185.212 20.62 185.317 20.55 185.434 20.55C185.504 20.55 185.585 20.5967 185.679 20.69L188.199 23.175C188.315 23.2917 188.374 23.3967 188.374 23.49C188.374 23.5367 188.327 23.63 188.234 23.77C187.464 24.7267 186.472 25.4733 185.259 26.01C184.045 26.5233 182.715 26.78 181.269 26.78C179.262 26.78 177.559 26.325 176.159 25.415C174.782 24.505 173.79 23.2333 173.184 21.6C172.694 20.4333 172.449 18.905 172.449 17.015C172.449 15.7317 172.624 14.6 172.974 13.62C173.51 11.9633 174.444 10.645 175.774 9.665C177.127 8.685 178.725 8.195 180.569 8.195C182.902 8.195 184.769 8.87167 186.169 10.225C187.592 11.5783 188.455 13.3867 188.759 15.65ZM180.604 12.465C179.134 12.465 178.165 13.1533 177.699 14.53C177.605 14.8333 177.524 15.2067 177.454 15.65C177.454 15.7667 177.512 15.825 177.629 15.825H183.684C183.824 15.825 183.87 15.7667 183.824 15.65C183.707 14.9733 183.649 14.6467 183.649 14.67C183.439 13.97 183.065 13.4333 182.529 13.06C182.015 12.6633 181.374 12.465 180.604 12.465Z" fill="white"/>
<path d="M3.01062 14.3744L10.6089 16.6602C10.7472 16.7018 10.8546 16.8093 10.8962 16.9475L13.182 24.5458C13.301 24.9415 13.8548 24.957 14.0122 24.569L21.1497 6.97289C21.296 6.61233 20.9441 6.26046 20.5835 6.40672L2.9874 13.5443C2.59939 13.7016 2.61488 14.2554 3.01062 14.3744Z" stroke="white" stroke-width="4"/>
<path d="M232 22L239 15L232 8" stroke="white" stroke-width="6" stroke-linecap="round" stroke-linejoin="round"/>
</svg>
