<svg width="140" height="115" viewBox="0 0 140 115" fill="none" xmlns="http://www.w3.org/2000/svg">
<path fill-rule="evenodd" clip-rule="evenodd" d="M121.963 17.4824C121.963 16.9301 122.411 16.4824 122.963 16.4824H134.148C134.7 16.4824 135.148 16.9301 135.148 17.4824V88.0009C135.148 88.5532 134.7 89.0009 134.148 89.0009H122.963C122.411 89.0009 121.963 88.5532 121.963 88.0009V17.4824ZM102.185 27.3722C102.185 26.8199 102.632 26.3722 103.185 26.3722H114.37C114.922 26.3722 115.37 26.8199 115.37 27.3722V88.0018C115.37 88.5541 114.922 89.0018 114.37 89.0018H103.185C102.632 89.0018 102.185 88.5541 102.185 88.0018V27.3722ZM83.4073 36.2597C82.855 36.2597 82.4073 36.7074 82.4073 37.2597V88.0005C82.4073 88.5527 82.855 89.0005 83.4073 89.0005H94.5924C95.1447 89.0005 95.5924 88.5527 95.5924 88.0005V37.2597C95.5924 36.7074 95.1447 36.2597 94.5924 36.2597H83.4073ZM62.6289 47.1495C62.6289 46.5972 63.0766 46.1495 63.6289 46.1495H74.814C75.3663 46.1495 75.814 46.5972 75.814 47.1495V88.0013C75.814 88.5536 75.3663 89.0013 74.814 89.0013H63.6289C63.0766 89.0013 62.6289 88.5536 62.6289 88.0013V47.1495ZM43.8516 56.037C43.2993 56.037 42.8516 56.4847 42.8516 57.037V88C42.8516 88.5523 43.2993 89 43.8516 89H55.0367C55.589 89 56.0367 88.5523 56.0367 88V57.037C56.0367 56.4847 55.589 56.037 55.0367 56.037H43.8516Z" fill="#C4C4C4"/>
</svg>
