<svg width="94" height="74" viewBox="0 0 94 74" fill="none" xmlns="http://www.w3.org/2000/svg">
<path fill-rule="evenodd" clip-rule="evenodd" d="M79.963 1.48242C79.963 0.930138 80.4107 0.482422 80.963 0.482422H92.1481C92.7004 0.482422 93.1481 0.930137 93.1481 1.48242V72.0009C93.1481 72.5532 92.7004 73.0009 92.1481 73.0009H80.963C80.4107 73.0009 79.963 72.5532 79.963 72.0009V1.48242ZM60.1846 11.3722C60.1846 10.8199 60.6323 10.3722 61.1846 10.3722H72.3697C72.922 10.3722 73.3697 10.8199 73.3697 11.3722V72.0018C73.3697 72.5541 72.922 73.0018 72.3697 73.0018H61.1846C60.6323 73.0018 60.1846 72.5541 60.1846 72.0018V11.3722ZM41.4073 20.2597C40.855 20.2597 40.4073 20.7074 40.4073 21.2597V72.0005C40.4073 72.5527 40.855 73.0005 41.4073 73.0005H52.5924C53.1447 73.0005 53.5924 72.5527 53.5924 72.0005V21.2597C53.5924 20.7074 53.1447 20.2597 52.5924 20.2597H41.4073ZM20.6289 31.1495C20.6289 30.5972 21.0766 30.1495 21.6289 30.1495H32.814C33.3663 30.1495 33.814 30.5972 33.814 31.1495V72.0013C33.814 72.5536 33.3663 73.0013 32.814 73.0013H21.6289C21.0766 73.0013 20.6289 72.5536 20.6289 72.0013V31.1495ZM1.85156 40.037C1.29928 40.037 0.851562 40.4847 0.851562 41.037V72C0.851562 72.5523 1.29928 73 1.85156 73H13.0367C13.589 73 14.0367 72.5523 14.0367 72V41.037C14.0367 40.4847 13.589 40.037 13.0367 40.037H1.85156Z" fill="#E0E0E0"/>
</svg>
