<svg width="99" height="81" viewBox="0 0 99 81" fill="none" xmlns="http://www.w3.org/2000/svg">
<path fill-rule="evenodd" clip-rule="evenodd" d="M12.8202 0H18.6476V13.9304H20.9786V18.5739H18.6476V25.5391H13.9857V18.5739H0V13.9304L12.8202 0ZM13.9857 13.9304V6.96522L6.99286 13.9304H13.9857ZM86.2455 12.6089C86.2455 12.0566 86.6932 11.6089 87.2455 11.6089H94.5693C95.1216 11.6089 95.5693 12.0566 95.5693 12.6089V61.6871C95.5693 62.2394 95.1216 62.6871 94.5693 62.6871H87.2455C86.6932 62.6871 86.2455 62.2394 86.2455 61.6871V12.6089ZM72.2593 19.5747C72.2593 19.0224 72.707 18.5747 73.2593 18.5747H80.5831C81.1354 18.5747 81.5831 19.0224 81.5831 19.5747V61.6878C81.5831 62.24 81.1354 62.6878 80.5831 62.6878H73.2593C72.707 62.6878 72.2593 62.24 72.2593 61.6878V19.5747ZM59.2739 25.539C58.7216 25.539 58.2739 25.9867 58.2739 26.539V61.6868C58.2739 62.2391 58.7216 62.6868 59.2739 62.6868H66.5977C67.15 62.6868 67.5977 62.2391 67.5977 61.6868V26.539C67.5977 25.9867 67.15 25.539 66.5977 25.539H59.2739ZM44.2877 33.5048C44.2877 32.9525 44.7355 32.5048 45.2877 32.5048H52.6115C53.1638 32.5048 53.6115 32.9525 53.6115 33.5048V61.6874C53.6115 62.2397 53.1638 62.6874 52.6115 62.6874H45.2877C44.7355 62.6874 44.2877 62.2397 44.2877 61.6874V33.5048ZM31.3024 39.469C30.7501 39.469 30.3024 39.9168 30.3024 40.469V61.6864C30.3024 62.2387 30.7501 62.6864 31.3024 62.6864H38.6262C39.1785 62.6864 39.6262 62.2387 39.6262 61.6864V40.469C39.6262 39.9168 39.1785 39.469 38.6262 39.469H31.3024ZM45.4538 6.96522L47.7847 3.48261C47.7847 3.48261 44.2883 0 38.4609 0C30.3026 0 25.6407 5.80435 25.6407 12.7696C25.6407 19.7348 30.3026 25.5391 38.4609 25.5391C45.4538 25.5391 48.9502 20.8957 48.9502 20.8957V11.6087H39.6264V16.2522H44.2883V18.5739C44.2883 18.5739 43.1228 20.8957 38.4609 20.8957C33.799 20.8957 30.3026 17.413 30.3026 12.7696C30.3026 8.12609 33.799 4.64348 38.4609 4.64348C42.9369 4.64348 45.4538 6.96522 45.4538 6.96522Z" fill="#5A5A5A"/>
</svg>
