<svg width="127" height="359" viewBox="0 0 127 359" fill="none" xmlns="http://www.w3.org/2000/svg">
<line x1="122.34" y1="19.9121" x2="122.34" y2="343.356" stroke="#C4C4C4" stroke-width="9"/>
<line x1="117.84" y1="22.4121" x2="91.0355" y2="22.4121" stroke="#C4C4C4" stroke-width="5"/>
<line x1="117.84" y1="341.387" x2="91.0355" y2="341.387" stroke="#C4C4C4" stroke-width="5"/>
<line x1="117.84" y1="178.771" x2="91.0355" y2="178.771" stroke="#C4C4C4" stroke-width="5"/>
<path d="M51.9211 201.528C48.4011 201.528 45.6171 200.552 43.5691 198.6C41.5211 196.616 40.4971 193.928 40.4971 190.536V177.864C40.4971 174.536 41.5211 171.896 43.5691 169.944C45.6171 167.992 48.4011 167.016 51.9211 167.016C55.4411 167.016 58.2251 167.992 60.2731 169.944C62.3531 171.896 63.3931 174.536 63.3931 177.864V190.536C63.3931 193.928 62.3531 196.616 60.2731 198.6C58.2251 200.552 55.4411 201.528 51.9211 201.528ZM51.9211 195.72C53.3611 195.72 54.4971 195.288 55.3291 194.424C56.1931 193.528 56.6251 192.344 56.6251 190.872V177.672C56.6251 176.2 56.1931 175.032 55.3291 174.168C54.4971 173.272 53.3611 172.824 51.9211 172.824C50.5131 172.824 49.3771 173.272 48.5131 174.168C47.6811 175.032 47.2651 176.2 47.2651 177.672V190.872C47.2651 192.344 47.6811 193.528 48.5131 194.424C49.3771 195.288 50.5131 195.72 51.9211 195.72ZM74.6881 178.392C73.2161 178.392 71.8561 178.04 70.6081 177.336C69.3601 176.6 68.3681 175.624 67.6321 174.408C66.9281 173.16 66.5761 171.784 66.5761 170.28C66.5761 168.808 66.9281 167.464 67.6321 166.248C68.3681 165 69.3601 164.024 70.6081 163.32C71.8561 162.584 73.2161 162.216 74.6881 162.216C76.1921 162.216 77.5521 162.584 78.7681 163.32C80.0161 164.024 80.9921 165 81.6961 166.248C82.4321 167.464 82.8001 168.808 82.8001 170.28C82.8001 171.784 82.4321 173.16 81.6961 174.408C80.9921 175.624 80.0161 176.6 78.7681 177.336C77.5521 178.04 76.1921 178.392 74.6881 178.392ZM74.6881 174.024C75.7441 174.024 76.6241 173.672 77.3281 172.968C78.0641 172.232 78.4321 171.336 78.4321 170.28C78.4321 169.192 78.0641 168.296 77.3281 167.592C76.6241 166.856 75.7441 166.488 74.6881 166.488C73.6641 166.488 72.7841 166.856 72.0481 167.592C71.3121 168.296 70.9441 169.192 70.9441 170.28C70.9441 171.336 71.3121 172.232 72.0481 172.968C72.7841 173.672 73.6641 174.024 74.6881 174.024Z" fill="#898989"/>
<path d="M20.4928 21.672C20.6528 21.672 20.7808 21.736 20.8768 21.864C21.0048 21.96 21.0688 22.088 21.0688 22.248V26.904C21.0688 27.064 21.0048 27.208 20.8768 27.336C20.7808 27.432 20.6528 27.48 20.4928 27.48H13.9168C13.7568 27.48 13.6768 27.56 13.6768 27.72V34.2C13.6768 34.36 13.6128 34.504 13.4848 34.632C13.3888 34.728 13.2608 34.776 13.1008 34.776H8.49281C8.33281 34.776 8.18881 34.728 8.06081 34.632C7.96481 34.504 7.91681 34.36 7.91681 34.2V27.72C7.91681 27.56 7.83681 27.48 7.67681 27.48H1.10081C0.940813 27.48 0.796813 27.432 0.668813 27.336C0.572813 27.208 0.524813 27.064 0.524813 26.904V22.248C0.524813 22.088 0.572813 21.96 0.668813 21.864C0.796813 21.736 0.940813 21.672 1.10081 21.672H7.67681C7.83681 21.672 7.91681 21.592 7.91681 21.432V14.808C7.91681 14.648 7.96481 14.52 8.06081 14.424C8.18881 14.296 8.33281 14.232 8.49281 14.232H13.1008C13.2608 14.232 13.3888 14.296 13.4848 14.424C13.6128 14.52 13.6768 14.648 13.6768 14.808V21.432C13.6768 21.592 13.7568 21.672 13.9168 21.672H20.4928ZM29.6766 5.544C29.8366 5.448 30.0766 5.4 30.3966 5.4H36.2046C36.3646 5.4 36.4926 5.464 36.5886 5.592C36.7166 5.688 36.7806 5.816 36.7806 5.976V38.424C36.7806 38.584 36.7166 38.728 36.5886 38.856C36.4926 38.952 36.3646 39 36.2046 39H30.5886C30.4286 39 30.2846 38.952 30.1566 38.856C30.0606 38.728 30.0126 38.584 30.0126 38.424V12.12C30.0126 12.056 29.9806 11.992 29.9166 11.928C29.8526 11.864 29.7886 11.848 29.7246 11.88L24.9726 13.176L24.7806 13.224C24.4926 13.224 24.3486 13.048 24.3486 12.696L24.2046 8.568C24.2046 8.248 24.3486 8.024 24.6366 7.896L29.6766 5.544ZM53.0773 39.528C49.5573 39.528 46.7733 38.552 44.7253 36.6C42.6773 34.616 41.6533 31.928 41.6533 28.536V15.864C41.6533 12.536 42.6773 9.896 44.7253 7.944C46.7733 5.992 49.5573 5.016 53.0773 5.016C56.5973 5.016 59.3813 5.992 61.4293 7.944C63.5093 9.896 64.5493 12.536 64.5493 15.864V28.536C64.5493 31.928 63.5093 34.616 61.4293 36.6C59.3813 38.552 56.5973 39.528 53.0773 39.528ZM53.0773 33.72C54.5173 33.72 55.6533 33.288 56.4853 32.424C57.3493 31.528 57.7813 30.344 57.7813 28.872V15.672C57.7813 14.2 57.3493 13.032 56.4853 12.168C55.6533 11.272 54.5173 10.824 53.0773 10.824C51.6693 10.824 50.5333 11.272 49.6693 12.168C48.8373 13.032 48.4213 14.2 48.4213 15.672V28.872C48.4213 30.344 48.8373 31.528 49.6693 32.424C50.5333 33.288 51.6693 33.72 53.0773 33.72ZM75.8443 16.392C74.3723 16.392 73.0123 16.04 71.7643 15.336C70.5163 14.6 69.5243 13.624 68.7883 12.408C68.0843 11.16 67.7323 9.784 67.7323 8.28C67.7323 6.808 68.0843 5.464 68.7883 4.248C69.5243 3 70.5163 2.024 71.7643 1.32C73.0123 0.583999 74.3723 0.215999 75.8443 0.215999C77.3483 0.215999 78.7083 0.583999 79.9243 1.32C81.1723 2.024 82.1483 3 82.8523 4.248C83.5883 5.464 83.9563 6.808 83.9563 8.28C83.9563 9.784 83.5883 11.16 82.8523 12.408C82.1483 13.624 81.1723 14.6 79.9243 15.336C78.7083 16.04 77.3483 16.392 75.8443 16.392ZM75.8443 12.024C76.9003 12.024 77.7803 11.672 78.4843 10.968C79.2203 10.232 79.5883 9.336 79.5883 8.28C79.5883 7.192 79.2203 6.296 78.4843 5.592C77.7803 4.856 76.9003 4.488 75.8443 4.488C74.8203 4.488 73.9403 4.856 73.2043 5.592C72.4683 6.296 72.1003 7.192 72.1003 8.28C72.1003 9.336 72.4683 10.232 73.2043 10.968C73.9403 11.672 74.8203 12.024 75.8443 12.024Z" fill="#898989"/>
<path d="M3.95238 346.72C3.79238 346.72 3.64838 346.672 3.52038 346.576C3.42438 346.448 3.37638 346.304 3.37638 346.144V341.488C3.37638 341.328 3.42438 341.2 3.52038 341.104C3.64838 340.976 3.79238 340.912 3.95238 340.912H19.6484C19.8084 340.912 19.9364 340.976 20.0324 341.104C20.1604 341.2 20.2244 341.328 20.2244 341.488V346.144C20.2244 346.304 20.1604 346.448 20.0324 346.576C19.9364 346.672 19.8084 346.72 19.6484 346.72H3.95238ZM28.825 324.544C28.985 324.448 29.225 324.4 29.545 324.4H35.353C35.513 324.4 35.641 324.464 35.737 324.592C35.865 324.688 35.929 324.816 35.929 324.976V357.424C35.929 357.584 35.865 357.728 35.737 357.856C35.641 357.952 35.513 358 35.353 358H29.737C29.577 358 29.433 357.952 29.305 357.856C29.209 357.728 29.161 357.584 29.161 357.424V331.12C29.161 331.056 29.129 330.992 29.065 330.928C29.001 330.864 28.937 330.848 28.873 330.88L24.121 332.176L23.929 332.224C23.641 332.224 23.497 332.048 23.497 331.696L23.353 327.568C23.353 327.248 23.497 327.024 23.785 326.896L28.825 324.544ZM52.2258 358.528C48.7058 358.528 45.9218 357.552 43.8738 355.6C41.8258 353.616 40.8018 350.928 40.8018 347.536V334.864C40.8018 331.536 41.8258 328.896 43.8738 326.944C45.9218 324.992 48.7058 324.016 52.2258 324.016C55.7458 324.016 58.5298 324.992 60.5778 326.944C62.6578 328.896 63.6978 331.536 63.6978 334.864V347.536C63.6978 350.928 62.6578 353.616 60.5778 355.6C58.5298 357.552 55.7458 358.528 52.2258 358.528ZM52.2258 352.72C53.6658 352.72 54.8018 352.288 55.6338 351.424C56.4978 350.528 56.9298 349.344 56.9298 347.872V334.672C56.9298 333.2 56.4978 332.032 55.6338 331.168C54.8018 330.272 53.6658 329.824 52.2258 329.824C50.8178 329.824 49.6818 330.272 48.8178 331.168C47.9858 332.032 47.5698 333.2 47.5698 334.672V347.872C47.5698 349.344 47.9858 350.528 48.8178 351.424C49.6818 352.288 50.8178 352.72 52.2258 352.72ZM74.9928 335.392C73.5208 335.392 72.1608 335.04 70.9128 334.336C69.6648 333.6 68.6728 332.624 67.9368 331.408C67.2328 330.16 66.8808 328.784 66.8808 327.28C66.8808 325.808 67.2328 324.464 67.9368 323.248C68.6728 322 69.6648 321.024 70.9128 320.32C72.1608 319.584 73.5208 319.216 74.9928 319.216C76.4968 319.216 77.8568 319.584 79.0728 320.32C80.3208 321.024 81.2968 322 82.0008 323.248C82.7368 324.464 83.1048 325.808 83.1048 327.28C83.1048 328.784 82.7368 330.16 82.0008 331.408C81.2968 332.624 80.3208 333.6 79.0728 334.336C77.8568 335.04 76.4968 335.392 74.9928 335.392ZM74.9928 331.024C76.0488 331.024 76.9288 330.672 77.6328 329.968C78.3688 329.232 78.7368 328.336 78.7368 327.28C78.7368 326.192 78.3688 325.296 77.6328 324.592C76.9288 323.856 76.0488 323.488 74.9928 323.488C73.9688 323.488 73.0888 323.856 72.3528 324.592C71.6168 325.296 71.2488 326.192 71.2488 327.28C71.2488 328.336 71.6168 329.232 72.3528 329.968C73.0888 330.672 73.9688 331.024 74.9928 331.024Z" fill="#898989"/>
</svg>
