<svg width="48" height="88" viewBox="0 0 48 88" fill="none" xmlns="http://www.w3.org/2000/svg">
<path d="M46.6213 24.6213C47.7929 23.4497 47.7929 21.5503 46.6213 20.3787L27.5294 1.2868C26.3579 0.115228 24.4584 0.115228 23.2868 1.2868C22.1152 2.45837 22.1152 4.35787 23.2868 5.52944L40.2574 22.5L23.2868 39.4706C22.1152 40.6421 22.1152 42.5416 23.2868 43.7132C24.4584 44.8848 26.3579 44.8848 27.5294 43.7132L46.6213 24.6213ZM3 31.5L8.55076e-08 31.5L3 31.5ZM3 88C6.00001 88 6.00001 87.9998 6.00001 87.9995C6.00001 87.9991 6.00001 87.9986 6.00001 87.9979C6.00001 87.9966 6.00001 87.9945 6.00001 87.9918C6.00001 87.9863 6.00001 87.9782 6.00001 87.9673C6.00001 87.9457 6.00001 87.9133 6.00001 87.8706C6 87.7851 6 87.658 6 87.4918C6 87.1594 6 86.6704 6 86.0439C6 84.791 6 82.9883 6 80.7891C6 76.3906 6 70.4063 6 64.0625C6 51.375 6 37.25 6 31.5L8.55076e-08 31.5C7.25857e-08 37.25 1.12409e-06 51.375 2.47685e-06 64.0625C3.15323e-06 70.4062 3.6069e-06 76.3906 4.1299e-06 80.7891C4.27219e-06 82.9883 4.67022e-06 84.791 4.61545e-06 86.0439C4.82649e-06 86.6704 4.80511e-06 87.1594 4.79058e-06 87.4918C4.78332e-06 87.658 4.77777e-06 87.7851 5.01245e-06 87.8706C5.01058e-06 87.9133 5.00917e-06 87.9457 5.00822e-06 87.9673C5.00774e-06 87.9782 5.00739e-06 87.9863 5.00715e-06 87.9918C5.00703e-06 87.9945 5.00694e-06 87.9966 5.00688e-06 87.9979C5.00685e-06 87.9986 5.00683e-06 87.9991 5.00681e-06 87.9995C5.0068e-06 87.9998 5.00679e-06 88 3 88ZM6 31.5C6 29.7963 6.33551 28.273 7.06704 27.2479C7.66923 26.4039 8.81363 25.5 11.5 25.5L11.5 19.5C7.18637 19.5 4.08077 21.1032 2.18296 23.7628C0.41449 26.2412 -5.3159e-08 29.2179 8.55076e-08 31.5L6 31.5ZM11.5 25.5C15 25.5 23.25 25.5 30.625 25.5C34.3125 25.5 37.7813 25.5 40.3281 25.5C41.6016 25.5 42.6445 25.5 43.3692 25.5C43.7314 25.5 44.0142 25.5 44.2063 25.5C44.3024 25.5 44.3758 25.5 44.4252 25.5C44.4499 25.5 44.4686 25.5 44.4811 25.5C44.4873 25.5 44.4922 25.5 44.4953 25.5C44.4968 25.5 44.498 25.5 44.4988 25.5C44.4992 25.5 44.4995 25.5 44.4997 25.5C44.4999 25.5 44.5 25.5 44.5 22.5C44.5 19.5 44.4999 19.5 44.4997 19.5C44.4995 19.5 44.4992 19.5 44.4988 19.5C44.498 19.5 44.4968 19.5 44.4953 19.5C44.4922 19.5 44.4873 19.5 44.4811 19.5C44.4686 19.5 44.4499 19.5 44.4252 19.5C44.3758 19.5 44.3024 19.5 44.2063 19.5C44.0142 19.5 43.7314 19.5 43.3692 19.5C42.6445 19.5 41.6016 19.5 40.3281 19.5C37.7813 19.5 34.3125 19.5 30.625 19.5C23.25 19.5 15 19.5 11.5 19.5L11.5 25.5Z" fill="#C4C4C4"/>
</svg>
