<svg width="88" height="89" viewBox="0 0 88 89" fill="none" xmlns="http://www.w3.org/2000/svg">
<line y1="22.5" x2="64" y2="22.5" stroke="#C4C4C4" stroke-width="5"/>
<path d="M86.6213 25.1213C87.7929 23.9497 87.7929 22.0503 86.6213 20.8787L67.5294 1.7868C66.3579 0.615226 64.4584 0.615226 63.2868 1.7868C62.1152 2.95837 62.1152 4.85787 63.2868 6.02944L80.2574 23L63.2868 39.9706C62.1152 41.1421 62.1152 43.0416 63.2868 44.2132C64.4584 45.3848 66.3579 45.3848 67.5294 44.2132L86.6213 25.1213ZM43 32H40H43ZM43 88.5C46 88.5 46 88.4998 46 88.4995C46 88.4991 46 88.4986 46 88.4979C46 88.4966 46 88.4945 46 88.4918C46 88.4863 46 88.4782 46 88.4673C46 88.4457 46 88.4133 46 88.3706C46 88.2851 46 88.158 46 87.9918C46 87.6594 46 87.1704 46 86.5439C46 85.291 46 83.4883 46 81.2891C46 76.8906 46 70.9062 46 64.5625C46 51.875 46 37.75 46 32H40C40 37.75 40 51.875 40 64.5625C40 70.9063 40 76.8906 40 81.2891C40 83.4883 40 85.291 40 86.5439C40 87.1704 40 87.6594 40 87.9918C40 88.158 40 88.2851 40 88.3706C40 88.4133 40 88.4457 40 88.4673C40 88.4782 40 88.4863 40 88.4918C40 88.4945 40 88.4966 40 88.4979C40 88.4986 40 88.4991 40 88.4995C40 88.4998 40 88.5 43 88.5ZM46 32C46 30.2963 46.3355 28.773 47.067 27.7479C47.6692 26.9039 48.8136 26 51.5 26L51.5 20C47.1864 20 44.0808 21.6032 42.183 24.2628C40.4145 26.7412 40 29.7179 40 32L46 32ZM51.5 26C55 26 63.25 26 70.625 26C74.3125 26 77.7813 26 80.3281 26C81.6016 26 82.6445 26 83.3692 26C83.7314 26 84.0142 26 84.2063 26C84.3024 26 84.3758 26 84.4252 26C84.4499 26 84.4686 26 84.4811 26C84.4873 26 84.4922 26 84.4953 26C84.4968 26 84.498 26 84.4988 26C84.4992 26 84.4995 26 84.4997 26C84.4999 26 84.5 26 84.5 23C84.5 20 84.4999 20 84.4997 20C84.4995 20 84.4992 20 84.4988 20C84.498 20 84.4968 20 84.4953 20C84.4922 20 84.4873 20 84.4811 20C84.4686 20 84.4499 20 84.4252 20C84.3758 20 84.3024 20 84.2063 20C84.0142 20 83.7314 20 83.3692 20C82.6445 20 81.6016 20 80.3281 20C77.7813 20 74.3125 20 70.625 20C63.25 20 55 20 51.5 20L51.5 26Z" fill="#4D4D4D"/>
</svg>
