<svg width="86" height="89" viewBox="0 0 86 89" fill="none" xmlns="http://www.w3.org/2000/svg">
<line x1="22" y1="22.5" x2="86" y2="22.5" stroke="#C4C4C4" stroke-width="5"/>
<path d="M0.878671 25.1213C-0.292903 23.9497 -0.292903 22.0503 0.878671 20.8787L19.9706 1.7868C21.1421 0.615228 23.0416 0.615228 24.2132 1.7868C25.3848 2.95837 25.3848 4.85787 24.2132 6.02944L7.24263 23L24.2132 39.9706C25.3848 41.1421 25.3848 43.0416 24.2132 44.2132C23.0416 45.3848 21.1421 45.3848 19.9706 44.2132L0.878671 25.1213ZM44.5 32L47.5 32L44.5 32ZM44.5 88.5C41.5 88.5 41.5 88.4998 41.5 88.4995C41.5 88.4991 41.5 88.4986 41.5 88.4979C41.5 88.4966 41.5 88.4945 41.5 88.4918C41.5 88.4863 41.5 88.4782 41.5 88.4673C41.5 88.4457 41.5 88.4133 41.5 88.3706C41.5 88.2851 41.5 88.158 41.5 87.9918C41.5 87.6594 41.5 87.1704 41.5 86.5439C41.5 85.291 41.5 83.4883 41.5 81.2891C41.5 76.8906 41.5 70.9063 41.5 64.5625C41.5 51.875 41.5 37.75 41.5 32L47.5 32C47.5 37.75 47.5 51.875 47.5 64.5625C47.5 70.9062 47.5 76.8906 47.5 81.2891C47.5 83.4883 47.5 85.291 47.5 86.5439C47.5 87.1704 47.5 87.6594 47.5 87.9918C47.5 88.158 47.5 88.2851 47.5 88.3706C47.5 88.4133 47.5 88.4457 47.5 88.4673C47.5 88.4782 47.5 88.4863 47.5 88.4918C47.5 88.4945 47.5 88.4966 47.5 88.4979C47.5 88.4986 47.5 88.4991 47.5 88.4995C47.5 88.4998 47.5 88.5 44.5 88.5ZM41.5 32C41.5 30.2963 41.1645 28.773 40.433 27.7479C39.8308 26.9039 38.6864 26 36 26L36 20C40.3136 20 43.4192 21.6032 45.317 24.2628C47.0855 26.7412 47.5 29.7179 47.5 32L41.5 32ZM36 26C32.5 26 24.25 26 16.875 26C13.1875 26 9.71874 26 7.17186 26C5.89843 26 4.85546 26 4.13085 26C3.76855 26 3.48582 26 3.29369 26C3.19761 26 3.12421 26 3.07479 26C3.05007 26 3.0314 26 3.01886 26C3.01268 26 3.0078 26 3.00473 26C3.00315 26 3.00197 26 3.00118 26C3.00078 26 3.00049 26 3.00029 26C3.00009 26 2.99999 26 2.99999 23C2.99999 20 3.00009 20 3.00029 20C3.00049 20 3.00078 20 3.00118 20C3.00197 20 3.00315 20 3.00473 20C3.0078 20 3.01268 20 3.01886 20C3.0314 20 3.05007 20 3.07479 20C3.12421 20 3.19761 20 3.29369 20C3.48582 20 3.76855 20 4.13085 20C4.85546 20 5.89843 20 7.17186 20C9.71874 20 13.1875 20 16.875 20C24.25 20 32.5 20 36 20L36 26Z" fill="#4D4D4D"/>
</svg>
