<svg width="89" height="89" viewBox="0 0 89 89" fill="none" xmlns="http://www.w3.org/2000/svg">
<path d="M87.6213 25.1213C88.7929 23.9497 88.7929 22.0503 87.6213 20.8787L68.5294 1.7868C67.3579 0.615226 65.4584 0.615226 64.2868 1.7868C63.1152 2.95837 63.1152 4.85787 64.2868 6.02944L81.2574 23L64.2868 39.9706C63.1152 41.1421 63.1152 43.0416 64.2868 44.2132C65.4584 45.3848 67.3579 45.3848 68.5294 44.2132L87.6213 25.1213ZM44 32H41H44ZM44 88.5C47 88.5 47 88.4998 47 88.4995C47 88.4991 47 88.4986 47 88.4979C47 88.4966 47 88.4945 47 88.4918C47 88.4863 47 88.4782 47 88.4673C47 88.4457 47 88.4133 47 88.3706C47 88.2851 47 88.158 47 87.9918C47 87.6594 47 87.1704 47 86.5439C47 85.291 47 83.4883 47 81.2891C47 76.8906 47 70.9062 47 64.5625C47 51.875 47 37.75 47 32H41C41 37.75 41 51.875 41 64.5625C41 70.9063 41 76.8906 41 81.2891C41 83.4883 41 85.291 41 86.5439C41 87.1704 41 87.6594 41 87.9918C41 88.158 41 88.2851 41 88.3706C41 88.4133 41 88.4457 41 88.4673C41 88.4782 41 88.4863 41 88.4918C41 88.4945 41 88.4966 41 88.4979C41 88.4986 41 88.4991 41 88.4995C41 88.4998 41 88.5 44 88.5ZM47 32C47 30.2963 47.3355 28.773 48.067 27.7479C48.6692 26.9039 49.8136 26 52.5 26L52.5 20C48.1864 20 45.0808 21.6032 43.183 24.2628C41.4145 26.7412 41 29.7179 41 32L47 32ZM52.5 26C56 26 64.25 26 71.625 26C75.3125 26 78.7813 26 81.3281 26C82.6016 26 83.6445 26 84.3692 26C84.7314 26 85.0142 26 85.2063 26C85.3024 26 85.3758 26 85.4252 26C85.4499 26 85.4686 26 85.4811 26C85.4873 26 85.4922 26 85.4953 26C85.4968 26 85.498 26 85.4988 26C85.4992 26 85.4995 26 85.4997 26C85.4999 26 85.5 26 85.5 23C85.5 20 85.4999 20 85.4997 20C85.4995 20 85.4992 20 85.4988 20C85.498 20 85.4968 20 85.4953 20C85.4922 20 85.4873 20 85.4811 20C85.4686 20 85.4499 20 85.4252 20C85.3758 20 85.3024 20 85.2063 20C85.0142 20 84.7314 20 84.3692 20C83.6445 20 82.6016 20 81.3281 20C78.7813 20 75.3125 20 71.625 20C64.25 20 56 20 52.5 20L52.5 26Z" fill="#C4C4C4"/>
<path d="M0 22.5H64" stroke="#C4C4C4" stroke-width="5"/>
</svg>
