<svg width="53" height="119" viewBox="0 0 53 119" fill="none" xmlns="http://www.w3.org/2000/svg">
<path fill-rule="evenodd" clip-rule="evenodd" d="M0 0V43.5098C0 58.0918 11.8211 69.9129 26.4031 69.9129C40.9852 69.9129 52.8062 58.0918 52.8062 43.5098V0H46.8563V42.7654C46.8563 54.0614 37.6991 63.2185 26.4032 63.2185C15.1072 63.2185 5.95005 54.0613 5.95005 42.7654V0H0Z" fill="#C4C4C4"/>
<rect x="23" y="68" width="6" height="51" fill="#4D4D4D"/>
<path fill-rule="evenodd" clip-rule="evenodd" d="M28 63.21C27.8018 63.2157 27.6028 63.2185 27.4032 63.2185C16.1072 63.2185 6.95005 54.0613 6.95005 42.7654V0H1V43.5098C1 58.0918 12.8211 69.9129 27.4031 69.9129C27.6026 69.9129 27.8016 69.9107 28 69.9063V63.21Z" fill="#4D4D4D"/>
</svg>
