<svg width="53" height="118" viewBox="0 0 53 118" fill="none" xmlns="http://www.w3.org/2000/svg">
<path fill-rule="evenodd" clip-rule="evenodd" d="M52.8064 118L52.8064 74.4902C52.8064 59.9082 40.9853 48.0871 26.4033 48.0871C11.8212 48.0871 0.000153852 59.9082 0.000152577 74.4902L0.000148773 118L5.9501 118L5.9501 75.2346C5.9501 63.9386 15.1073 54.7815 26.4032 54.7815C37.6992 54.7815 46.8564 63.9387 46.8564 75.2346L46.8564 118L52.8064 118Z" fill="#C4C4C4"/>
<path fill-rule="evenodd" clip-rule="evenodd" d="M24.8064 54.79C25.0047 54.7843 25.2036 54.7815 25.4032 54.7815C36.6992 54.7815 45.8564 63.9387 45.8564 75.2346L45.8564 118L51.8064 118L51.8064 74.4902C51.8064 59.9082 39.9853 48.0871 25.4033 48.0871C25.2038 48.0871 25.0048 48.0893 24.8064 48.0937L24.8064 54.79Z" fill="#C4C4C4"/>
<path d="M26.7678 1.23223C25.7915 0.255924 24.2085 0.255924 23.2322 1.23223L7.32233 17.1421C6.34602 18.1184 6.34602 19.7014 7.32233 20.6777C8.29864 21.654 9.88155 21.654 10.8579 20.6777L25 6.53553L39.1421 20.6777C40.1184 21.654 41.7014 21.654 42.6777 20.6777C43.654 19.7014 43.654 18.1184 42.6777 17.1421L26.7678 1.23223ZM27.5 49L27.5 3L22.5 3L22.5 49L27.5 49Z" fill="#C4C4C4"/>
</svg>
