<svg width="49" height="145" viewBox="0 0 49 145" fill="none" xmlns="http://www.w3.org/2000/svg">
<line x1="5" y1="145" x2="4.99999" y2="9" stroke="#C4C4C4" stroke-width="10"/>
<path d="M5 145C5 145 5 106 5 103C5 100 5.73099 98.6556 7.63158 96.5C9.53216 94.3444 24.4444 78.4778 27.2222 75.4889C30 72.5 30 71.3741 30 68.437C30 65.5 30 9 30 9" stroke="#C4C4C4" stroke-width="5"/>
<path d="M31.7678 1.23223C30.7915 0.255922 29.2085 0.255922 28.2322 1.23223L12.3223 17.1421C11.346 18.1184 11.346 19.7014 12.3223 20.6777C13.2986 21.654 14.8816 21.654 15.8579 20.6777L30 6.53553L44.1421 20.6777C45.1184 21.654 46.7014 21.654 47.6777 20.6777C48.654 19.7014 48.654 18.1184 47.6777 17.1421L31.7678 1.23223ZM32.5 43L32.5 3L27.5 3L27.5 43L32.5 43Z" fill="#C4C4C4"/>
</svg>
