<svg width="47" height="145" viewBox="0 0 47 145" fill="none" xmlns="http://www.w3.org/2000/svg">
<line x1="19" y1="145" x2="19" y2="9" stroke="#C4C4C4" stroke-width="10"/>
<path d="M44 145C44 145 44 106 44 103C44 100 43.269 98.6556 41.3684 96.5C39.4678 94.3444 24.5556 78.4778 21.7778 75.4889C19 72.5 19 71.3741 19 68.437C19 65.5 19 9 19 9" stroke="#C4C4C4" stroke-width="5"/>
<path d="M20.7678 1.23223C19.7915 0.255922 18.2085 0.255922 17.2322 1.23223L1.32233 17.1421C0.346019 18.1184 0.346019 19.7014 1.32233 20.6777C2.29864 21.654 3.88155 21.654 4.85786 20.6777L19 6.53553L33.1421 20.6777C34.1184 21.654 35.7014 21.654 36.6777 20.6777C37.654 19.7014 37.654 18.1184 36.6777 17.1421L20.7678 1.23223ZM21.5 43L21.5 3L16.5 3L16.5 43L21.5 43Z" fill="#C4C4C4"/>
</svg>
