<svg width="56" height="111" viewBox="0 0 56 111" fill="none" xmlns="http://www.w3.org/2000/svg">
<circle cx="43.5" cy="43.4561" r="12.5" fill="#C4C4C4"/>
<path fill-rule="evenodd" clip-rule="evenodd" d="M43 0C19.0752 1.04636 0 20.7737 0 44.9564C0 69.139 19.0752 88.8663 43 89.9127V82.9046C22.9429 81.8646 7 65.2723 7 44.9564C7 24.6404 22.9429 8.0481 43 7.00808V0Z" fill="#C4C4C4"/>
<path fill-rule="evenodd" clip-rule="evenodd" d="M8.21641 54.9561C12.4521 70.4518 26.2503 81.9986 42.875 82.8606V89.8687C22.3659 88.9717 5.42051 74.3471 1 54.9561H8.21641Z" fill="#C4C4C4"/>
<path d="M42.5 82.9561L42.5 110.456" stroke="#C4C4C4" stroke-width="7"/>
<path d="M14.1993 76.2653C12.9317 76.8127 12.3478 78.284 12.8952 79.5516L21.815 100.208C22.3624 101.476 23.8337 102.059 25.1013 101.512C26.3689 100.965 26.9527 99.4934 26.4054 98.2258L18.4766 79.8646L36.8379 71.9358C38.1054 71.3885 38.6893 69.9172 38.1419 68.6496C37.5945 67.382 36.1232 66.7981 34.8557 67.3455L14.1993 76.2653ZM26.802 80.4786L16.1125 76.2368L14.2683 80.8842L24.9578 85.1261L26.802 80.4786Z" fill="#C4C4C4"/>
</svg>
