<svg width="104" height="102" viewBox="0 0 104 102" fill="none" xmlns="http://www.w3.org/2000/svg">
<circle cx="32.5" cy="31.5" r="12.5" fill="#4D4D4D"/>
<line x1="34" y1="58" x2="34" y2="102" stroke="#4D4D4D" stroke-width="6"/>
<path d="M103.121 33.1213C104.293 31.9497 104.293 30.0502 103.121 28.8787L84.0294 9.78679C82.8579 8.61522 80.9584 8.61522 79.7868 9.78679C78.6152 10.9584 78.6152 12.8579 79.7868 14.0294L96.7574 31L79.7868 47.9706C78.6152 49.1421 78.6152 51.0416 79.7868 52.2132C80.9584 53.3848 82.8579 53.3848 84.0294 52.2132L103.121 33.1213ZM58 34L101 34L101 28L58 28L58 34Z" fill="#4D4D4D"/>
<path fill-rule="evenodd" clip-rule="evenodd" d="M35 57.879C34.1775 57.959 33.3435 58 32.5 58C18.4167 58 7 46.5833 7 32.5C7 18.4167 18.4167 7 32.5 7C46.4162 7 57.7288 18.1475 57.9952 32H64.9962C64.729 14.2813 50.2823 0 32.5 0C14.5507 0 0 14.5507 0 32.5C0 50.4493 14.5507 65 32.5 65C33.3412 65 34.1749 64.968 35 64.9053V57.879Z" fill="#4D4D4D"/>
</svg>
