<svg width="56" height="111" viewBox="0 0 56 111" fill="none" xmlns="http://www.w3.org/2000/svg">
<circle cx="43.5" cy="43.5" r="12.5" fill="#C4C4C4"/>
<path fill-rule="evenodd" clip-rule="evenodd" d="M43 0.0438934C19.0752 1.09026 0 20.8176 0 45.0002C0 69.1829 19.0752 88.9102 43 89.9566V82.9485C22.9429 81.9085 7 65.3162 7 45.0002C7 24.6843 22.9429 8.092 43 7.05197V0.0438934Z" fill="#C4C4C4"/>
<path fill-rule="evenodd" clip-rule="evenodd" d="M8.21641 55C12.4521 70.4957 26.2503 82.0425 42.875 82.9046V89.9127C22.3659 89.0157 5.42051 74.391 1 55H8.21641Z" fill="#4D4D4D"/>
<path d="M42.5 83L42.5 110.5" stroke="#4D4D4D" stroke-width="7"/>
<path d="M14.1993 76.3093C12.9317 76.8567 12.3478 78.328 12.8952 79.5955L21.815 100.252C22.3624 101.52 23.8337 102.103 25.1013 101.556C26.3689 101.009 26.9527 99.5373 26.4054 98.2697L18.4766 79.9085L36.8379 71.9798C38.1054 71.4324 38.6893 69.9611 38.1419 68.6935C37.5945 67.4259 36.1232 66.8421 34.8557 67.3895L14.1993 76.3093ZM26.802 80.5226L16.1125 76.2807L14.2683 80.9282L24.9578 85.17L26.802 80.5226Z" fill="#4D4D4D"/>
</svg>
