<svg width="95" height="97" viewBox="0 0 95 97" fill="none" xmlns="http://www.w3.org/2000/svg">
<circle cx="82.5" cy="24.5" r="12.5" fill="#4D4D4D"/>
<line x1="84" y1="53" x2="84" y2="97" stroke="#4D4D4D" stroke-width="6"/>
<path d="M0.878677 20.8787C-0.292896 22.0503 -0.292896 23.9498 0.878678 25.1213L19.9706 44.2132C21.1421 45.3848 23.0416 45.3848 24.2132 44.2132C25.3848 43.0416 25.3848 41.1421 24.2132 39.9706L7.24264 23L24.2132 6.02944C25.3848 4.85787 25.3848 2.95837 24.2132 1.7868C23.0416 0.615226 21.1421 0.615226 19.9706 1.7868L0.878677 20.8787ZM57 20L3 20L3 26L57 26L57 20Z" fill="#4D4D4D"/>
<path fill-rule="evenodd" clip-rule="evenodd" d="M87 49.6042C85.5393 49.8643 84.0355 50 82.5 50C68.4167 50 57 38.5833 57 24.5C57 23.9965 57.0146 23.4963 57.0434 23H50.034C50.0114 23.4972 50 23.9973 50 24.5C50 42.4493 64.5507 57 82.5 57C84.0269 57 85.5292 56.8947 87 56.691V49.6042Z" fill="#4D4D4D"/>
</svg>
