<svg width="58" height="84" viewBox="0 0 58 84" fill="none" xmlns="http://www.w3.org/2000/svg">
<path d="M55.5001 6L58.0001 6L58.0001 0.875596L53.9614 4.02966L55.5001 6ZM0.5187 46.6948C0.350148 48.0652 1.32443 49.3128 2.69481 49.4813L25.0265 52.228C26.3969 52.3966 27.6445 51.4223 27.813 50.0519C27.9816 48.6815 27.0073 47.434 25.6369 47.2654L5.78649 44.8239L8.22801 24.9735C8.39656 23.6031 7.42228 22.3555 6.0519 22.187C4.68151 22.0184 3.43396 22.9927 3.26541 24.3631L0.5187 46.6948ZM58.0001 84L58.0001 6L53.0001 6L53.0001 84L58.0001 84ZM53.9614 4.02966L1.46126 45.0297L4.53875 48.9703L57.0389 7.97035L53.9614 4.02966Z" fill="#C4C4C4"/>
</svg>
