<svg width="48" height="89" viewBox="0 0 48 89" fill="none" xmlns="http://www.w3.org/2000/svg">
<path d="M46.6213 25.1213C47.7929 23.9497 47.7929 22.0503 46.6213 20.8787L27.5294 1.7868C26.3579 0.615226 24.4584 0.615226 23.2868 1.7868C22.1152 2.95837 22.1152 4.85787 23.2868 6.02944L40.2574 23L23.2868 39.9706C22.1152 41.1421 22.1152 43.0416 23.2868 44.2132C24.4584 45.3848 26.3579 45.3848 27.5294 44.2132L46.6213 25.1213ZM3 32H0H3ZM3 88.5C6 88.5 6 88.4998 6 88.4995C6 88.4991 6 88.4986 6 88.4979C6 88.4966 6 88.4945 6 88.4918C6 88.4863 6 88.4782 6 88.4673C6 88.4457 6 88.4133 6 88.3706C6 88.2851 6 88.158 6 87.9918C6 87.6594 6 87.1704 6 86.5439C6 85.291 6 83.4883 6 81.2891C6 76.8906 6 70.9062 6 64.5625C6 51.875 6 37.75 6 32H0C0 37.75 1.22838e-06 51.875 2.45677e-06 64.5625C3.07096e-06 70.9063 3.68515e-06 76.8906 4.1458e-06 81.2891C4.37612e-06 83.4883 4.56806e-06 85.291 4.70241e-06 86.5439C4.76959e-06 87.1704 4.82237e-06 87.6594 4.85836e-06 87.9918C4.87635e-06 88.158 4.89015e-06 88.2851 4.89944e-06 88.3706C4.90409e-06 88.4133 4.90762e-06 88.4457 4.90998e-06 88.4673C4.91116e-06 88.4782 4.91205e-06 88.4863 4.91264e-06 88.4918C4.91294e-06 88.4945 4.91316e-06 88.4966 4.91331e-06 88.4979C4.91339e-06 88.4986 4.91345e-06 88.4991 4.91348e-06 88.4995C4.91352e-06 88.4998 4.91354e-06 88.5 3 88.5ZM6 32C6 30.2963 6.33551 28.773 7.06704 27.7479C7.66923 26.9039 8.81363 26 11.5 26L11.5 20C7.18637 20 4.08077 21.6032 2.18296 24.2628C0.41449 26.7412 0 29.7179 0 32L6 32ZM11.5 26C15 26 23.25 26 30.625 26C34.3125 26 37.7813 26 40.3281 26C41.6016 26 42.6445 26 43.3692 26C43.7314 26 44.0142 26 44.2063 26C44.3024 26 44.3758 26 44.4252 26C44.4499 26 44.4686 26 44.4811 26C44.4873 26 44.4922 26 44.4953 26C44.4968 26 44.498 26 44.4988 26C44.4992 26 44.4995 26 44.4997 26C44.4999 26 44.5 26 44.5 23C44.5 20 44.4999 20 44.4997 20C44.4995 20 44.4992 20 44.4988 20C44.498 20 44.4968 20 44.4953 20C44.4922 20 44.4873 20 44.4811 20C44.4686 20 44.4499 20 44.4252 20C44.3758 20 44.3024 20 44.2063 20C44.0142 20 43.7314 20 43.3692 20C42.6445 20 41.6016 20 40.3281 20C37.7813 20 34.3125 20 30.625 20C23.25 20 15 20 11.5 20L11.5 26Z" fill="#4D4D4D"/>
</svg>
