<svg width="58" height="84" viewBox="0 0 58 84" fill="none" xmlns="http://www.w3.org/2000/svg">
<path d="M2.50012 6L0.000122476 6L0.000122502 0.875596L4.03887 4.02966L2.50012 6ZM57.4815 46.6948C57.6501 48.0652 56.6758 49.3128 55.3054 49.4813L32.9737 52.228C31.6033 52.3966 30.3558 51.4223 30.1872 50.0519C30.0187 48.6815 30.993 47.434 32.3633 47.2654L52.2138 44.8239L49.7722 24.9735C49.6037 23.6031 50.578 22.3555 51.9483 22.187C53.3187 22.0184 54.5663 22.9927 54.7348 24.3631L57.4815 46.6948ZM0.00012207 84L0.000122476 6L5.00012 6L5.00012 84L0.00012207 84ZM4.03887 4.02966L56.539 45.0297L53.4615 48.9703L0.961379 7.97035L4.03887 4.02966Z" fill="#C4C4C4"/>
</svg>
