<svg width="58" height="84" viewBox="0 0 58 84" fill="none" xmlns="http://www.w3.org/2000/svg">
<path d="M55.0001 6L57.5001 6L57.5001 0.875596L53.4614 4.02966L55.0001 6ZM0.0186997 46.6948C-0.149852 48.0652 0.824427 49.3128 2.19481 49.4813L24.5265 52.228C25.8969 52.3966 27.1445 51.4223 27.313 50.0519C27.4816 48.6815 26.5073 47.434 25.1369 47.2654L5.28649 44.8239L7.72801 24.9735C7.89656 23.6031 6.92228 22.3555 5.5519 22.187C4.18151 22.0184 2.93396 22.9927 2.76541 24.3631L0.0186997 46.6948ZM57.5001 84L57.5001 6L52.5001 6L52.5001 84L57.5001 84ZM53.4614 4.02966L0.961258 45.0297L4.03875 48.9703L56.5389 7.97035L53.4614 4.02966Z" fill="#4D4D4D"/>
</svg>
