<svg width="51" height="93" viewBox="0 0 51 93" fill="none" xmlns="http://www.w3.org/2000/svg">
<path d="M2.9999 37L0.499898 37L0.499898 35.662L1.61315 34.9199L2.9999 37ZM48.4903 4.54855C49.8442 4.81933 50.7222 6.13639 50.4514 7.49029L46.0388 29.5534C45.768 30.9073 44.451 31.7853 43.0971 31.5145C41.7432 31.2437 40.8651 29.9267 41.1359 28.5728L45.0583 8.96116L25.4466 5.03882C24.0927 4.76804 23.2147 3.45097 23.4855 2.09707C23.7563 0.743174 25.0733 -0.134867 26.4272 0.135914L48.4903 4.54855ZM0.499897 93L0.499898 37L5.4999 37L5.4999 93L0.499897 93ZM1.61315 34.9199L46.6132 4.91987L49.3867 9.08013L4.38665 39.0801L1.61315 34.9199Z" fill="#4D4D4D"/>
</svg>
