<svg width="58" height="84" viewBox="0 0 58 84" fill="none" xmlns="http://www.w3.org/2000/svg">
<path d="M3.00012 6L0.500122 6L0.500123 0.875596L4.53887 4.02966L3.00012 6ZM57.9815 46.6948C58.1501 48.0652 57.1758 49.3128 55.8054 49.4813L33.4737 52.228C32.1033 52.3966 30.8558 51.4223 30.6872 50.0519C30.5187 48.6815 31.493 47.434 32.8633 47.2654L52.7138 44.8239L50.2722 24.9735C50.1037 23.6031 51.078 22.3555 52.4483 22.187C53.8187 22.0184 55.0663 22.9927 55.2348 24.3631L57.9815 46.6948ZM0.500122 84L0.500122 6L5.50012 6L5.50012 84L0.500122 84ZM4.53887 4.02966L57.039 45.0297L53.9615 48.9703L1.46138 7.97035L4.53887 4.02966Z" fill="#4D4D4D"/>
</svg>
