<svg width="51" height="93" viewBox="0 0 51 93" fill="none" xmlns="http://www.w3.org/2000/svg">
<path d="M48.0001 37L50.5001 37L50.5001 35.662L49.3869 34.9199L48.0001 37ZM2.50971 4.54855C1.15581 4.81933 0.277771 6.13639 0.548553 7.49029L4.96119 29.5534C5.23197 30.9073 6.54903 31.7853 7.90293 31.5145C9.25683 31.2437 10.1349 29.9267 9.86409 28.5728L5.94175 8.96116L25.5534 5.03882C26.9073 4.76804 27.7853 3.45097 27.5145 2.09707C27.2437 0.743174 25.9267 -0.134867 24.5728 0.135914L2.50971 4.54855ZM50.5001 93L50.5001 37L45.5001 37L45.5001 93L50.5001 93ZM49.3869 34.9199L4.38675 4.91987L1.61326 9.08013L46.6134 39.0801L49.3869 34.9199Z" fill="#4D4D4D"/>
</svg>
